<?xml version="1.0" encoding="UTF-8" standalone="no"?>
<svg
   xmlns:dc="http://purl.org/dc/elements/1.1/"
   xmlns:cc="http://creativecommons.org/ns#"
   xmlns:rdf="http://www.w3.org/1999/02/22-rdf-syntax-ns#"
   xmlns:svg="http://www.w3.org/2000/svg"
   xmlns="http://www.w3.org/2000/svg"
   viewBox="40 100 350 460"
   height="460"
   width="350"
   xml:space="preserve"
   id="svg2"
   version="1.1"><metadata
     id="metadata8"><rdf:RDF><cc:Work
         rdf:about=""><dc:format>image/svg+xml</dc:format><dc:type
           rdf:resource="http://purl.org/dc/dcmitype/StillImage" /></cc:Work></rdf:RDF></metadata><defs
     id="defs6"><clipPath
       id="clipPath20"
       clipPathUnits="userSpaceOnUse"><path
         id="path18"
         d="M 0,500 H 600 V 0 H 0 Z" /></clipPath></defs><g
     transform="matrix(1.3333333,0,0,-1.3333333,0,666.66667)"
     id="g10"><path
       id="path12" style="fill:none"
       d="M 0,0 H 600 V 500 H 0 Z" /><g
       id="g14"><g
         clip-path="url(#clipPath20)"
         id="g16"><g
           transform="translate(111.9754,396.0942)"
           id="g138"><path
             id="path140"
             style="fill:#f0f2fa;fill-opacity:1;fill-rule:nonzero;stroke:none"
             d="M 0,0 -5.534,-5.766 C 30.424,-16.187 43.56,-46.801 43.56,-46.801 l 5.742,-0.232 C 40.215,-12.648 0,0 0,0" /></g><g
           transform="translate(210.6408,396.0942)"
           id="g142"><path
             id="path144"
             style="fill:#f0f2fa;fill-opacity:1;fill-rule:nonzero;stroke:none"
             d="M 0,0 5.534,-5.766 C -30.424,-16.187 -43.56,-46.801 -43.56,-46.801 l -5.742,-0.232 C -40.215,-12.648 0,0 0,0" /></g><g
           transform="translate(111.9754,396.0943)"
           id="g146"><path
             id="path148"
             style="fill:#f0f2fa;fill-opacity:1;fill-rule:nonzero;stroke:none"
             d="M 0,0 C 0,0 10.124,10.267 49.363,10.044 88.603,9.821 98.665,0 98.665,0 c 0,0 -6.99,-1.968 -14.384,-6.573 0,0 -34.155,-1.94 -34.778,-2.277 -0.624,-0.336 -35.118,2.422 -35.118,2.422 z" /></g><g
           transform="translate(196.2565,389.5218)"
           id="g150"><path
             id="path152"
             style="fill:#dcdfe7;fill-opacity:1;fill-rule:nonzero;stroke:none"
             d="m 0,0 c -29.469,-16.434 -34.979,-40.461 -34.979,-40.461 -7.218,27.065 -34.917,40.605 -34.917,40.605 0,0 16.518,4.524 34.918,4.648 C -16.111,4.919 0,0 0,0" /></g><g
           transform="translate(59.0835,112.7557)"
           id="g154"><path
             id="path156"
             style="fill:#f0f2fa;fill-opacity:1;fill-rule:nonzero;stroke:none"
             d="m 0,0 4.812,-13.52 c 0,0 17.462,-3.069 28.383,5.051 L 31.519,4.686 C 31.519,4.686 21.393,-3.178 0,0" /></g><g
           transform="translate(263.5327,112.7557)"
           id="g158"><path
             id="path160"
             style="fill:#f0f2fa;fill-opacity:1;fill-rule:nonzero;stroke:none"
             d="m 0,0 -4.812,-13.52 c 0,0 -17.461,-3.069 -28.383,5.051 l 1.676,13.155 c 0,0 10.126,-7.864 31.519,-4.686" /></g><g
           transform="translate(89.9444,122.609)"
           id="g162"><path
             id="path164"
             style="fill:#f0f2fa;fill-opacity:1;fill-rule:nonzero;stroke:none"
             d="m 0,0 c 0,0 66.896,-16.928 142.712,-0.12 l -2.989,-23.457 c 0,0 -39.95,-5.299 -68.329,-5.383 -32.401,-0.096 -68.39,5.383 -68.39,5.383 z" /></g><g
           transform="translate(122.9949,363.9828)"
           id="g166"><path
             id="path168"
             style="fill:#dcdfe7;fill-opacity:1;fill-rule:nonzero;stroke:none"
             d="M 0,0 C 0,0 7.095,-10.59 22.838,-12.575 22.838,-12.575 14.29,-0.979 0,0" /></g><g
           transform="translate(199.8951,363.9828)"
           id="g170"><path
             id="path172"
             style="fill:#dcdfe7;fill-opacity:1;fill-rule:nonzero;stroke:none"
             d="m 0,0 c 0,0 -7.095,-10.59 -22.838,-12.575 0,0 8.548,11.596 22.838,12.575" /></g><g
           transform="translate(84.7319,255.7565)"
           id="g174"><path
             id="path176"
             style="fill:#dcdfe7;fill-opacity:1;fill-rule:nonzero;stroke:none"
             d="m 0,0 c 0,0 -7.807,-88.383 -9.051,-101.37 -1.244,-12.986 -2.622,-28.406 14.263,-31.777 0,0 -13.663,9.216 -10.05,28.311 0,0 2.449,46.895 2.581,50.642 z" /></g><g
           transform="translate(237.869,255.7565)"
           id="g178"><path
             id="path180"
             style="fill:#dcdfe7;fill-opacity:1;fill-rule:nonzero;stroke:none"
             d="m 0,0 c 0,0 7.807,-88.383 9.051,-101.37 1.243,-12.986 2.622,-28.406 -14.264,-31.777 0,0 13.663,9.216 10.051,28.311 0,0 -2.449,46.895 -2.581,50.642 z" /></g><g
           transform="translate(85.1408,297.2812)"
           id="g182"><path
             id="path184"
             style="fill:none;stroke:#000000;stroke-width:1;stroke-linecap:round;stroke-linejoin:round;stroke-miterlimit:10;stroke-dasharray:none;stroke-opacity:1"
             d="m 0,0 c 0,-28.852 -3.543,-131.353 -5.568,-149.829 -2.025,-18.475 10.269,-25.133 13.484,-25.815 0,0 31.075,-6.388 68.221,-6.388" /></g><g
           transform="translate(103.2402,362.0708)"
           id="g186"><path
             id="path188"
             style="fill:none;stroke:#000000;stroke-width:1;stroke-linecap:round;stroke-linejoin:round;stroke-miterlimit:10;stroke-dasharray:none;stroke-opacity:1"
             d="M 0,0 C -6.587,7.703 1.668,12.108 1.668,12.108 -7.071,21.207 8.735,34.023 8.735,34.023 52.055,18.346 58.037,-13.01 58.037,-13.01 30.717,-13.01 19.19,1.936 19.19,1.936 H 8.553 C 5.59,1.936 2.675,1.274 0,0 c -6.067,-2.89 -17.824,-8.929 -29.876,-17.544 -6.51,-4.652 -11.259,-11.357 -13.632,-18.998 -6.375,-20.521 -17.968,-67.424 -16.089,-132.588 2.34,-81.092 9.937,-79.882 20.527,-80.941 0,0 19.05,-0.856 26.433,5.442" /></g><g
           transform="translate(106.4412,390.3278)"
           id="g190"><path
             id="path192"
             style="fill:none;stroke:#000000;stroke-width:1;stroke-linecap:round;stroke-linejoin:round;stroke-miterlimit:10;stroke-dasharray:none;stroke-opacity:1"
             d="M 0,0 C 0,0 34.862,-9.264 49.094,-41.034" /></g><g
           transform="translate(104.9084,387.2446)"
           id="g194"><path
             id="path196"
             style="fill:none;stroke:#000000;stroke-width:0.49200001;stroke-linecap:round;stroke-linejoin:round;stroke-miterlimit:4;stroke-dasharray:none;stroke-opacity:1"
             d="M 0,0 C 0,0 0.336,-0.089 0.956,-0.28" /></g><g
           transform="translate(107.8231,386.3193)"
           id="g198"><path
             id="path200"
             style="fill:none;stroke:#000000;stroke-width:0.49200001;stroke-linecap:round;stroke-linejoin:round;stroke-miterlimit:4;stroke-dasharray:2.065, 2.065;stroke-dashoffset:0;stroke-opacity:1"
             d="M 0,0 C 8.053,-2.798 30.842,-12.389 43.456,-34.716" /></g><g
           transform="translate(151.7847,350.6905)"
           id="g202"><path
             id="path204"
             style="fill:none;stroke:#000000;stroke-width:0.49200001;stroke-linecap:round;stroke-linejoin:round;stroke-miterlimit:4;stroke-dasharray:none;stroke-opacity:1"
             d="M 0,0 C 0.159,-0.292 0.316,-0.587 0.472,-0.884" /></g><g
           transform="translate(217.7077,387.2446)"
           id="g206"><path
             id="path208"
             style="fill:none;stroke:#000000;stroke-width:0.49200001;stroke-linecap:round;stroke-linejoin:round;stroke-miterlimit:4;stroke-dasharray:none;stroke-opacity:1"
             d="M 0,0 C 0,0 -0.336,-0.089 -0.956,-0.28" /></g><g
           transform="translate(214.7931,386.3193)"
           id="g210"><path
             id="path212"
             style="fill:none;stroke:#000000;stroke-width:0.49200001;stroke-linecap:round;stroke-linejoin:round;stroke-miterlimit:4;stroke-dasharray:2.065, 2.065;stroke-dashoffset:0;stroke-opacity:1"
             d="M 0,0 C -8.053,-2.798 -30.842,-12.389 -43.456,-34.716" /></g><g
           transform="translate(170.8315,350.6905)"
           id="g214"><path
             id="path216"
             style="fill:none;stroke:#000000;stroke-width:0.49200001;stroke-linecap:round;stroke-linejoin:round;stroke-miterlimit:4;stroke-dasharray:none;stroke-opacity:1"
             d="M 0,0 C -0.159,-0.292 -0.316,-0.587 -0.472,-0.884" /></g><g
           transform="translate(104.9084,374.1788)"
           id="g218"><path
             id="path220"
             style="fill:none;stroke:#000000;stroke-width:1;stroke-linecap:round;stroke-linejoin:round;stroke-miterlimit:10;stroke-dasharray:none;stroke-opacity:1"
             d="M 0,0 C 0,0 6.606,-4.329 13.181,-6.122" /></g><g
           transform="translate(122.4306,364.0067)"
           id="g222"><path
             id="path224"
             style="fill:none;stroke:#000000;stroke-width:1;stroke-linecap:round;stroke-linejoin:round;stroke-miterlimit:10;stroke-dasharray:none;stroke-opacity:1"
             d="M 0,0 C 0,0 13.5,0 23.978,-13.312" /></g><g
           transform="translate(111.9754,396.0943)"
           id="g226"><path
             id="path228"
             style="fill:none;stroke:#000000;stroke-width:1;stroke-linecap:round;stroke-linejoin:round;stroke-miterlimit:10;stroke-dasharray:none;stroke-opacity:1"
             d="M 0,0 C 0,0 8.309,10.044 49.302,10.044" /></g><g
           transform="translate(89.8945,123.0005)"
           id="g230"><path
             id="path232"
             style="fill:none;stroke:#000000;stroke-width:1;stroke-linecap:round;stroke-linejoin:round;stroke-miterlimit:10;stroke-dasharray:none;stroke-opacity:1"
             d="m 0,0 3.054,-23.969 c 0,0 30.347,-5.383 68.329,-5.383" /></g><g
           transform="translate(59.0835,112.7557)"
           id="g234"><path
             id="path236"
             style="fill:none;stroke:#000000;stroke-width:1;stroke-linecap:round;stroke-linejoin:round;stroke-miterlimit:10;stroke-dasharray:none;stroke-opacity:1"
             d="m 0,0 4.812,-13.52 c 0,0 15.454,-3.256 28.383,5.051" /></g><g
           transform="translate(63.6419,334.111)"
           id="g238"><path
             id="path240"
             style="fill:none;stroke:#000000;stroke-width:1;stroke-linecap:round;stroke-linejoin:round;stroke-miterlimit:10;stroke-dasharray:none;stroke-opacity:1"
             d="M 0,0 C 0,0 17.777,-31.372 21.09,-62.744" /></g><g
           transform="translate(61.7652,329.6286)"
           id="g242"><path
             id="path244"
             style="fill:none;stroke:#000000;stroke-width:0.49200001;stroke-linecap:round;stroke-linejoin:round;stroke-miterlimit:10;stroke-dasharray:2;stroke-dashoffset:0;stroke-opacity:1"
             d="M 0,0 C 0,0 17.584,-29.918 22.967,-73.872" /></g><g
           transform="translate(261.0255,329.6286)"
           id="g246"><path
             id="path248"
             style="fill:none;stroke:#000000;stroke-width:0.49200001;stroke-linecap:round;stroke-linejoin:round;stroke-miterlimit:10;stroke-dasharray:2;stroke-dashoffset:0;stroke-opacity:1"
             d="M 0,0 C 0,0 -17.584,-29.918 -22.967,-73.872" /></g><g
           transform="translate(153.6411,362.0563)"
           id="g250"><path
             id="path252"
             style="fill:none;stroke:#000000;stroke-width:1;stroke-linecap:round;stroke-linejoin:round;stroke-miterlimit:10;stroke-dasharray:none;stroke-opacity:1"
             d="m 0,0 c 0,-0.936 -0.758,-1.694 -1.694,-1.694 -0.936,0 -1.695,0.758 -1.695,1.694 0,0.936 0.759,1.694 1.695,1.694 C -0.758,1.694 0,0.936 0,0 Z" /></g><g
           transform="translate(216.8377,121.7404)"
           id="g254"><path
             id="path256"
             style="fill:none;stroke:#000000;stroke-width:0.49200001;stroke-linecap:round;stroke-linejoin:round;stroke-miterlimit:4;stroke-dasharray:none;stroke-opacity:1"
             d="M 0,0 C 0.142,0.277 0.283,0.579 0.422,0.904" /></g><g
           transform="translate(217.9656,124.5123)"
           id="g258"><path
             id="path260"
             style="fill:none;stroke:#000000;stroke-width:0.49200001;stroke-linecap:round;stroke-linejoin:round;stroke-miterlimit:4;stroke-dasharray:2, 2;stroke-dashoffset:0;stroke-opacity:1"
             d="m 0,0 c 2.36,6.996 4.156,19.817 4.899,26.463 0.034,0.301 -0.083,0.59 -0.306,0.795 -16.586,15.221 -18.728,29.634 -18.915,38.68 -0.011,0.54 -0.474,0.954 -1.013,0.929 -45.668,-2.167 -73.235,-0.777 -82.644,-0.113 -0.547,0.038 -1.004,-0.38 -1.016,-0.928 -0.203,-9.129 -2.395,-23.409 -18.913,-38.568 -0.223,-0.205 -0.34,-0.494 -0.306,-0.795 0.777,-6.955 2.708,-20.672 5.232,-27.399" /></g><g
           transform="translate(105.3565,122.6441)"
           id="g262"><path
             id="path264"
             style="fill:none;stroke:#000000;stroke-width:0.49200001;stroke-linecap:round;stroke-linejoin:round;stroke-miterlimit:4;stroke-dasharray:none;stroke-opacity:1"
             d="m 0,0 c 0.139,-0.324 0.28,-0.626 0.422,-0.904 0,0 0.335,-0.063 0.981,-0.173" /></g><g
           transform="translate(108.7208,121.2458)"
           id="g266"><path
             id="path268"
             style="fill:none;stroke:#000000;stroke-width:0.49200001;stroke-linecap:round;stroke-linejoin:round;stroke-miterlimit:4;stroke-dasharray:1.991, 1.991;stroke-dashoffset:0;stroke-opacity:1"
             d="M 0,0 C 11.639,-1.836 56.266,-7.759 106.14,0.173" /></g><g
           transform="translate(215.8504,121.5782)"
           id="g270"><path
             id="path272"
             style="fill:none;stroke:#000000;stroke-width:0.49200001;stroke-linecap:round;stroke-linejoin:round;stroke-miterlimit:4;stroke-dasharray:none;stroke-opacity:1"
             d="M 0,0 C 0.329,0.053 0.658,0.107 0.987,0.162" /></g><g
           transform="translate(236.7011,126.1125)"
           id="g274"><path
             id="path276"
             style="fill:none;stroke:#000000;stroke-width:0.49200001;stroke-linecap:round;stroke-linejoin:round;stroke-miterlimit:4;stroke-dasharray:none;stroke-opacity:1"
             d="M 0,0 C -0.308,-0.126 -0.619,-0.247 -0.931,-0.364" /></g><g
           transform="translate(234.0607,125.1623)"
           id="g278"><path
             id="path280"
             style="fill:none;stroke:#000000;stroke-width:0.49200001;stroke-linecap:round;stroke-linejoin:round;stroke-miterlimit:4;stroke-dasharray:1.807, 1.807;stroke-dashoffset:0;stroke-opacity:1"
             d="M 0,0 C -3.771,-1.191 -7.548,-1.747 -9.731,-1.99" /></g><g
           transform="translate(223.4343,123.0799)"
           id="g282"><path
             id="path284"
             style="fill:none;stroke:#000000;stroke-width:0.49200001;stroke-linecap:round;stroke-linejoin:round;stroke-miterlimit:4;stroke-dasharray:none;stroke-opacity:1"
             d="m 0,0 c -0.632,-0.059 -0.993,-0.08 -0.993,-0.08 0.105,0.31 0.208,0.626 0.309,0.95" /></g><g
           transform="translate(223.2965,125.8023)"
           id="g286"><path
             id="path288"
             style="fill:none;stroke:#000000;stroke-width:0.49200001;stroke-linecap:round;stroke-linejoin:round;stroke-miterlimit:4;stroke-dasharray:1.93, 1.93;stroke-dashoffset:0;stroke-opacity:1"
             d="M 0,0 C 2.524,9.102 4.008,22.058 4.39,25.665" /></g><g
           transform="translate(227.7844,152.4239)"
           id="g290"><path
             id="path292"
             style="fill:none;stroke:#000000;stroke-width:0.49200001;stroke-linecap:round;stroke-linejoin:round;stroke-miterlimit:4;stroke-dasharray:none;stroke-opacity:1"
             d="M 0,0 0.1,0.995 -0.661,1.643" /></g><g
           transform="translate(225.6215,155.3809)"
           id="g294"><path
             id="path296"
             style="fill:none;stroke:#000000;stroke-width:0.49200001;stroke-linecap:round;stroke-linejoin:round;stroke-miterlimit:4;stroke-dasharray:1.995, 1.995;stroke-dashoffset:0;stroke-opacity:1"
             d="m 0,0 c -18.531,16.789 -17.23,38.105 -17.214,38.417 l 0.078,1.558 c 0.029,0.569 -0.44,1.037 -1.008,1.009 l -1.557,-0.079 c -59.138,-2.982 -88.809,-0.04 -89.102,-0.009 l -1.635,0.167 c -0.586,0.06 -1.087,-0.416 -1.057,-1.004 l 0.082,-1.642 c 0.016,-0.316 1.351,-22.194 -17.958,-39.079" /></g><g
           transform="translate(95.4929,154.0671)"
           id="g298"><path
             id="path300"
             style="fill:none;stroke:#000000;stroke-width:0.49200001;stroke-linecap:round;stroke-linejoin:round;stroke-miterlimit:4;stroke-dasharray:none;stroke-opacity:1"
             d="m 0,0 -0.762,-0.648 0.101,-0.995" /></g><g
           transform="translate(95.0337,150.5076)"
           id="g302"><path
             id="path304"
             style="fill:none;stroke:#000000;stroke-width:0.49200001;stroke-linecap:round;stroke-linejoin:round;stroke-miterlimit:4;stroke-dasharray:1.93, 1.93;stroke-dashoffset:0;stroke-opacity:1"
             d="M 0,0 C 0.524,-4.731 2.06,-17.165 4.55,-25.63" /></g><g
           transform="translate(99.8655,123.9501)"
           id="g306"><path
             id="path308"
             style="fill:none;stroke:#000000;stroke-width:0.49200001;stroke-linecap:round;stroke-linejoin:round;stroke-miterlimit:4;stroke-dasharray:none;stroke-opacity:1"
             d="m 0,0 c 0.102,-0.324 0.205,-0.641 0.31,-0.95 0,0 -0.368,0.031 -0.993,0.097" /></g><g
           transform="translate(97.3852,123.308)"
           id="g310"><path
             id="path312"
             style="fill:none;stroke:#000000;stroke-width:0.49200001;stroke-linecap:round;stroke-linejoin:round;stroke-miterlimit:4;stroke-dasharray:1.813, 1.813;stroke-dashoffset:0;stroke-opacity:1"
             d="M 0,0 C -2.67,0.344 -6.727,1 -9.74,2.083" /></g><g
           transform="translate(86.792,125.7209)"
           id="g314"><path
             id="path316"
             style="fill:none;stroke:#000000;stroke-width:0.49200001;stroke-linecap:round;stroke-linejoin:round;stroke-miterlimit:4;stroke-dasharray:none;stroke-opacity:1"
             d="M 0,0 C -0.319,0.134 -0.622,0.273 -0.904,0.419" /></g><g
           transform="translate(104.2075,119.7146)"
           id="g318"><path
             id="path320"
             style="fill:none;stroke:#000000;stroke-width:1;stroke-linecap:round;stroke-linejoin:round;stroke-miterlimit:10;stroke-dasharray:none;stroke-opacity:1"
             d="m 0,0 c -4.396,6.874 -6.993,32.705 -6.993,32.705 21.07,17.938 19.362,41.499 19.362,41.499 0,0 29.398,-3.029 89.463,0 0,0 -1.708,-23.561 19.363,-41.499 0,0 -2.598,-25.831 -6.994,-32.705" /></g><g
           transform="translate(237.4754,297.2812)"
           id="g322"><path
             id="path324"
             style="fill:none;stroke:#000000;stroke-width:1;stroke-linecap:round;stroke-linejoin:round;stroke-miterlimit:10;stroke-dasharray:none;stroke-opacity:1"
             d="m 0,0 c 0,-28.852 3.543,-131.353 5.568,-149.829 2.025,-18.475 -10.269,-25.133 -13.484,-25.815 0,0 -31.075,-6.388 -68.221,-6.388" /></g><g
           transform="translate(219.3759,362.0708)"
           id="g326"><path
             id="path328"
             style="fill:none;stroke:#000000;stroke-width:1;stroke-linecap:round;stroke-linejoin:round;stroke-miterlimit:10;stroke-dasharray:none;stroke-opacity:1"
             d="m 0,0 c 6.587,7.703 -1.668,12.108 -1.668,12.108 8.739,9.099 -7.067,21.915 -7.067,21.915 -43.32,-15.677 -49.302,-47.033 -49.302,-47.033 27.32,0 38.847,14.946 38.847,14.946 H -8.553 C -5.59,1.936 -2.675,1.274 0,0 c 6.067,-2.89 17.824,-8.929 29.876,-17.544 6.51,-4.652 11.259,-11.357 13.632,-18.998 6.375,-20.521 17.968,-67.424 16.089,-132.588 -2.34,-81.092 -9.937,-79.882 -20.527,-80.941 0,0 -19.05,-0.856 -26.433,5.442" /></g><g
           transform="translate(216.175,390.3278)"
           id="g330"><path
             id="path332"
             style="fill:none;stroke:#000000;stroke-width:1;stroke-linecap:round;stroke-linejoin:round;stroke-miterlimit:10;stroke-dasharray:none;stroke-opacity:1"
             d="M 0,0 C 0,0 -34.862,-9.264 -49.095,-41.034" /></g><g
           transform="translate(217.7077,374.1788)"
           id="g334"><path
             id="path336"
             style="fill:none;stroke:#000000;stroke-width:1;stroke-linecap:round;stroke-linejoin:round;stroke-miterlimit:10;stroke-dasharray:none;stroke-opacity:1"
             d="M 0,0 C 0,0 -6.606,-4.329 -13.181,-6.122" /></g><g
           transform="translate(200.1855,364.0067)"
           id="g338"><path
             id="path340"
             style="fill:none;stroke:#000000;stroke-width:1;stroke-linecap:round;stroke-linejoin:round;stroke-miterlimit:10;stroke-dasharray:none;stroke-opacity:1"
             d="M 0,0 C 0,0 -13.5,0 -23.978,-13.312" /></g><g
           transform="translate(210.6408,396.0943)"
           id="g342"><path
             id="path344"
             style="fill:none;stroke:#000000;stroke-width:1;stroke-linecap:round;stroke-linejoin:round;stroke-miterlimit:10;stroke-dasharray:none;stroke-opacity:1"
             d="M 0,0 C 0,0 -8.309,10.044 -49.302,10.044" /></g><g
           transform="translate(196.257,389.6659)"
           id="g346"><path
             id="path348"
             style="fill:none;stroke:#000000;stroke-width:1;stroke-linecap:round;stroke-linejoin:round;stroke-miterlimit:10;stroke-dasharray:none;stroke-opacity:1"
             d="m 0,0 c -7.497,2.54 -18.626,4.648 -34.918,4.648 h -0.061 C -51.271,4.648 -62.4,2.54 -69.897,0" /></g><g
           transform="translate(192.3806,387.3471)"
           id="g350"><path
             id="path352"
             style="fill:none;stroke:#000000;stroke-width:0.49200001;stroke-linecap:round;stroke-linejoin:round;stroke-miterlimit:4;stroke-dasharray:none;stroke-opacity:1"
             d="M 0,0 C -0.313,0.091 -0.632,0.181 -0.959,0.27" /></g><g
           transform="translate(189.528,388.1044)"
           id="g354"><path
             id="path356"
             style="fill:none;stroke:#000000;stroke-width:0.49200001;stroke-linecap:round;stroke-linejoin:round;stroke-miterlimit:4;stroke-dasharray:1.959, 1.959;stroke-dashoffset:0;stroke-opacity:1"
             d="m 0,0 c -6.543,1.583 -15.646,2.789 -28.193,2.789 h -0.054 c -13.158,0 -22.529,-1.327 -29.132,-3.023" /></g><g
           transform="translate(131.1954,387.6175)"
           id="g358"><path
             id="path360"
             style="fill:none;stroke:#000000;stroke-width:0.49200001;stroke-linecap:round;stroke-linejoin:round;stroke-miterlimit:4;stroke-dasharray:none;stroke-opacity:1"
             d="M 0,0 C -0.327,-0.089 -0.647,-0.18 -0.959,-0.27" /></g><g
           transform="translate(232.7217,123.0005)"
           id="g362"><path
             id="path364"
             style="fill:none;stroke:#000000;stroke-width:1;stroke-linecap:round;stroke-linejoin:round;stroke-miterlimit:10;stroke-dasharray:none;stroke-opacity:1"
             d="m 0,0 -3.054,-23.969 c 0,0 -30.348,-5.383 -68.329,-5.383" /></g><g
           transform="translate(263.5327,112.7557)"
           id="g366"><path
             id="path368"
             style="fill:none;stroke:#000000;stroke-width:1;stroke-linecap:round;stroke-linejoin:round;stroke-miterlimit:10;stroke-dasharray:none;stroke-opacity:1"
             d="m 0,0 -4.812,-13.52 c 0,0 -15.454,-3.256 -28.383,5.051" /></g><g
           transform="translate(258.9742,334.111)"
           id="g370"><path
             id="path372"
             style="fill:none;stroke:#000000;stroke-width:1;stroke-linecap:round;stroke-linejoin:round;stroke-miterlimit:10;stroke-dasharray:none;stroke-opacity:1"
             d="M 0,0 C 0,0 -17.777,-31.372 -21.09,-62.744" /></g><g
           transform="translate(168.9751,362.0563)"
           id="g374"><path
             id="path376"
             style="fill:none;stroke:#000000;stroke-width:1;stroke-linecap:round;stroke-linejoin:round;stroke-miterlimit:10;stroke-dasharray:none;stroke-opacity:1"
             d="M 0,0 C 0,-0.936 0.758,-1.694 1.694,-1.694 2.63,-1.694 3.389,-0.936 3.389,0 3.389,0.936 2.63,1.694 1.694,1.694 0.758,1.694 0,0.936 0,0 Z" /></g><g
           transform="translate(148.5598,306.7022)"
           id="g378"><path
             id="path380"
             style="fill:none;stroke:#000000;stroke-width:1;stroke-linecap:round;stroke-linejoin:round;stroke-miterlimit:10;stroke-dasharray:none;stroke-opacity:1"
             d="M 0,0 C 0.015,-4.816 0.028,-7.926 0.028,-7.926" /></g><g
           transform="translate(151.9468,362.0563)"
           id="g382"><path
             id="path384"
             style="fill:none;stroke:#000000;stroke-width:2;stroke-linecap:round;stroke-linejoin:round;stroke-miterlimit:10;stroke-dasharray:none;stroke-opacity:1"
             d="M 0,0 C 0,0 -3.168,-5.803 -3.359,-17.232 -3.5,-25.722 -3.432,-41.443 -3.387,-55.354" /></g><g
           transform="translate(174.0288,306.7022)"
           id="g386"><path
             id="path388"
             style="fill:none;stroke:#000000;stroke-width:1;stroke-linecap:round;stroke-linejoin:round;stroke-miterlimit:10;stroke-dasharray:none;stroke-opacity:1"
             d="M 0,0 C -0.015,-4.816 -0.028,-7.926 -0.028,-7.926" /></g><g
           transform="translate(170.6418,362.0563)"
           id="g390"><path
             id="path392"
             style="fill:none;stroke:#000000;stroke-width:2;stroke-linecap:round;stroke-linejoin:round;stroke-miterlimit:10;stroke-dasharray:none;stroke-opacity:1"
             d="m 0,0 c 0,0 3.169,-5.803 3.359,-17.232 0.142,-8.49 0.073,-24.211 0.028,-38.122" /></g><g
           transform="translate(156.2659,361.3387)"
           id="g394"><path
             id="path396"
             style="fill:none;stroke:#000000;stroke-width:1;stroke-linecap:round;stroke-linejoin:round;stroke-miterlimit:10;stroke-dasharray:none;stroke-opacity:1"
             d="M 0,0 C 0,0 4.183,0.718 10.085,0" /></g><g
           transform="translate(161.2777,406.1386)"
           id="g398"><path
             id="path400"
             style="fill:none;stroke:#000000;stroke-width:1;stroke-linecap:round;stroke-linejoin:round;stroke-miterlimit:10;stroke-dasharray:none;stroke-opacity:1"
             d="M 0,0 V -44.482" /></g><g
           transform="translate(118.8731,364.0067)"
           id="g402"><path
             id="path404"
             style="fill:none;stroke:#000000;stroke-width:0.49200001;stroke-linecap:round;stroke-linejoin:round;stroke-miterlimit:4;stroke-dasharray:none;stroke-opacity:1"
             d="M 0,0 C 0,0 0.13,-0.327 0.438,-0.894" /></g><g
           transform="translate(120.3752,361.3933)"
           id="g406"><path
             id="path408"
             style="fill:none;stroke:#000000;stroke-width:0.49200001;stroke-linecap:round;stroke-linejoin:round;stroke-miterlimit:4;stroke-dasharray:2.025, 2.025;stroke-dashoffset:0;stroke-opacity:1"
             d="m 0,0 c 3.518,-5.093 14.102,-15.851 40.744,-15.851 28.236,0 38.905,11.917 41.951,16.469" /></g><g
           transform="translate(203.6131,362.8729)"
           id="g410"><path
             id="path412"
             style="fill:none;stroke:#000000;stroke-width:0.49200001;stroke-linecap:round;stroke-linejoin:round;stroke-miterlimit:4;stroke-dasharray:none;stroke-opacity:1"
             d="M 0,0 C 0.328,0.557 0.47,0.878 0.47,0.878" /></g><g
           transform="translate(52.6561,118.2628)"
           id="g414"><path
             id="path416"
             style="fill:none;stroke:#000000;stroke-width:0.49200001;stroke-linecap:round;stroke-linejoin:round;stroke-miterlimit:10;stroke-dasharray:2;stroke-dashoffset:0;stroke-opacity:1"
             d="M 0,0 C 0,0 13.01,-7.48 37.657,1.452" /></g><g
           transform="translate(269.7086,118.2628)"
           id="g418"><path
             id="path420"
             style="fill:none;stroke:#000000;stroke-width:0.49200001;stroke-linecap:round;stroke-linejoin:round;stroke-miterlimit:10;stroke-dasharray:2;stroke-dashoffset:0;stroke-opacity:1"
             d="M 0,0 C 0,0 -13.01,-7.48 -37.657,1.452" /></g><g
           transform="translate(44.3754,236.8253)"
           id="g422"><path
             id="path424"
             style="fill:none;stroke:#000000;stroke-width:1;stroke-linecap:round;stroke-linejoin:round;stroke-miterlimit:10;stroke-dasharray:none;stroke-opacity:1"
             d="M 0,0 C 0,0 0.526,-18.279 4.316,-32.089" /></g><g
           transform="translate(278.2493,236.8253)"
           id="g426"><path
             id="path428"
             style="fill:none;stroke:#000000;stroke-width:1;stroke-linecap:round;stroke-linejoin:round;stroke-miterlimit:10;stroke-dasharray:none;stroke-opacity:1"
             d="M 0,0 C 0,0 -0.526,-18.279 -4.316,-32.089" /></g></g></g></g></svg>