<?xml version="1.0" encoding="UTF-8" standalone="no"?>
<svg
   xmlns:dc="http://purl.org/dc/elements/1.1/"
   xmlns:cc="http://creativecommons.org/ns#"
   xmlns:rdf="http://www.w3.org/1999/02/22-rdf-syntax-ns#"
   xmlns:svg="http://www.w3.org/2000/svg"
   xmlns="http://www.w3.org/2000/svg"
   viewBox="445 100 350 460"
   height="460"
   width="350"
   xml:space="preserve"
   id="svg2"
   version="1.1"><metadata
     id="metadata8"><rdf:RDF><cc:Work
         rdf:about=""><dc:format>image/svg+xml</dc:format><dc:type
           rdf:resource="http://purl.org/dc/dcmitype/StillImage" /></cc:Work></rdf:RDF></metadata><defs
     id="defs6"><clipPath
       id="clipPath20"
       clipPathUnits="userSpaceOnUse"><path
         id="path18"
         d="M 0,500 H 600 V 0 H 0 Z" /></clipPath></defs><g
     transform="matrix(1.3333333,0,0,-1.3333333,0,666.66667)"
     id="g10"><path
       id="path12" style="fill:none"
       d="M 0,0 H 600 V 500 H 0 Z" /><g
       id="g14"><g
         clip-path="url(#clipPath20)"
         id="g16"><g
           transform="translate(543.737,112.7557)"
           id="g26"><path
             id="path28"
             style="fill:#f0f2fa;fill-opacity:1;fill-rule:nonzero;stroke:none"
             d="m 0,0 -4.812,-13.52 c 0,0 -17.461,-3.069 -28.383,5.051 l 1.676,13.155 c 0,0 10.126,-7.864 31.519,-4.686" /></g><g
           transform="translate(488.4999,395.9336)"
           id="g34"><path
             id="path36"
             style="fill:#f0f2fa;fill-opacity:1;fill-rule:nonzero;stroke:none"
             d="m 0,0 c 0,0 -16.6,9.78 -48.407,10.419 0,0 -28.438,0.225 -48.389,-10.419 l -5.557,-6.15 c 0.16,0.229 27.206,12.777 53.966,11.397 0,0 35.503,-0.505 54.551,-12.145 z" /></g><g
           transform="translate(515.318,255.7565)"
           id="g42"><path
             id="path44"
             style="fill:#dcdfe7;fill-opacity:1;fill-rule:nonzero;stroke:none"
             d="m 0,0 c 0,0 7.807,-88.383 9.051,-101.37 1.244,-12.986 2.622,-28.406 -14.263,-31.777 0,0 13.663,9.216 10.05,28.311 0,0 -2.449,46.895 -2.581,50.642 z" /></g><g
           transform="translate(490.2976,360.8248)"
           id="g46"><path
             id="path48"
             style="fill:#dcdfe7;fill-opacity:1;fill-rule:nonzero;stroke:none"
             d="m 0,0 c -23.44,-39.544 -50.205,-36.676 -50.205,-36.676 0,0 -26.765,-2.868 -50.205,36.676 l -1.343,1.085 c 0,0 13.357,-40.459 51.548,-41.482 38.192,1.023 51.549,41.482 51.549,41.482 z" /></g><g
           transform="translate(538.7462,329.6286)"
           id="g54"><path
             id="path56"
             style="fill:none;stroke:#000000;stroke-width:0.49200001;stroke-linecap:round;stroke-linejoin:round;stroke-miterlimit:10;stroke-dasharray:2;stroke-dashoffset:0;stroke-opacity:1"
             d="M 0,0 C 0,0 -17.584,-29.918 -22.967,-73.872" /></g><g
           transform="translate(383.5293,361.9101)"
           id="g78"><path
             id="path80"
             style="fill:none;stroke:#000000;stroke-width:1;stroke-linecap:round;stroke-linejoin:round;stroke-miterlimit:10;stroke-dasharray:none;stroke-opacity:1"
             d="m 0,0 c -6.587,7.703 1.668,12.108 1.668,12.108 -7.873,10.19 6.507,21.915 6.507,21.915 0,0 16.87,10.419 48.389,10.419" /></g><g
           transform="translate(514.8592,297.2812)"
           id="g82"><path
             id="path84"
             style="fill:none;stroke:#000000;stroke-width:1;stroke-linecap:round;stroke-linejoin:round;stroke-miterlimit:10;stroke-dasharray:none;stroke-opacity:1"
             d="m 0,0 c 0,-28.852 3.543,-131.353 5.568,-149.829 2.025,-18.475 -10.269,-25.133 -13.484,-25.815 0,0 -31.075,-6.388 -68.221,-6.388" /></g><g
           transform="translate(514.051,126.5326)"
           id="g86"><path
             id="path88"
             style="fill:none;stroke:#000000;stroke-width:0.49200001;stroke-linecap:round;stroke-linejoin:round;stroke-miterlimit:10;stroke-dasharray:2;stroke-dashoffset:0;stroke-opacity:1"
             d="m 0,0 c 0,0 -33.531,-8.081 -73.949,-8.281 l -0.443,0.002 C -114.611,-8.022 -147.898,0 -147.898,0" /></g><g
           transform="translate(509.3973,117.4416)"
           id="g90"><path
             id="path92"
             style="fill:none;stroke:#000000;stroke-width:1;stroke-linecap:round;stroke-linejoin:round;stroke-miterlimit:10;stroke-dasharray:none;stroke-opacity:1"
             d="m 0,0 c 7.382,-6.298 26.432,-5.441 26.432,-5.441 10.591,1.058 18.188,-0.152 20.527,80.94 1.883,65.265 -9.75,112.213 -16.118,132.683 -2.392,7.69 -7.242,14.372 -13.8,19.045 -9.715,6.923 -19.219,12.17 -25.684,15.439 -2.543,1.287 -5.347,1.963 -8.198,1.963 -0.944,0 -1.814,-0.497 -2.286,-1.314 -3.857,-6.687 -22.653,-36.608 -50.159,-36.608" /></g><g
           transform="translate(510.1055,123.0005)"
           id="g94"><path
             id="path96"
             style="fill:none;stroke:#000000;stroke-width:1;stroke-linecap:round;stroke-linejoin:round;stroke-miterlimit:10;stroke-dasharray:none;stroke-opacity:1"
             d="m 0,0 -3.054,-23.969 c 0,0 -30.347,-5.383 -68.329,-5.383" /></g><g
           transform="translate(540.9165,112.7557)"
           id="g98"><path
             id="path100"
             style="fill:none;stroke:#000000;stroke-width:1;stroke-linecap:round;stroke-linejoin:round;stroke-miterlimit:10;stroke-dasharray:none;stroke-opacity:1"
             d="m 0,0 -4.812,-13.52 c 0,0 -15.454,-3.256 -28.383,5.051" /></g><g
           transform="translate(536.3581,334.111)"
           id="g102"><path
             id="path104"
             style="fill:none;stroke:#000000;stroke-width:1;stroke-linecap:round;stroke-linejoin:round;stroke-miterlimit:10;stroke-dasharray:none;stroke-opacity:1"
             d="M 0,0 C 0,0 -17.777,-31.372 -21.09,-62.744" /></g><g
           transform="translate(496.6749,361.9101)"
           id="g106"><path
             id="path108"
             style="fill:none;stroke:#000000;stroke-width:1;stroke-linecap:round;stroke-linejoin:round;stroke-miterlimit:10;stroke-dasharray:none;stroke-opacity:1"
             d="m 0,0 c 6.587,7.703 -1.668,12.108 -1.668,12.108 7.873,10.19 -6.507,21.915 -6.507,21.915 0,0 -16.87,10.419 -48.388,10.419" /></g><g
           transform="translate(494.6637,388.8595)"
           id="g110"><path
             id="path112"
             style="fill:none;stroke:#000000;stroke-width:1;stroke-linecap:round;stroke-linejoin:round;stroke-miterlimit:10;stroke-dasharray:none;stroke-opacity:1"
             d="m 0,0 c 0,0 -19.019,12.321 -54.551,12.321 h -0.021 C -90.104,12.321 -109.123,0 -109.123,0" /></g><g
           transform="translate(495.4973,385.437)"
           id="g114"><path
             id="path116"
             style="fill:none;stroke:#000000;stroke-width:0.49200001;stroke-linecap:round;stroke-linejoin:round;stroke-miterlimit:10;stroke-dasharray:2;stroke-dashoffset:0;stroke-opacity:1"
             d="m 0,0 c 0,0 -19.309,12.799 -55.384,12.799 h -0.022 C -91.481,12.799 -110.79,0 -110.79,0" /></g><g
           transform="translate(547.3171,118.2628)"
           id="g122"><path
             id="path124"
             style="fill:none;stroke:#000000;stroke-width:0.49200001;stroke-linecap:round;stroke-linejoin:round;stroke-miterlimit:10;stroke-dasharray:2;stroke-dashoffset:0;stroke-opacity:1"
             d="M 0,0 C 0,0 -13.01,-7.48 -37.657,1.452" /></g><g
           transform="translate(440.0928,406.3522)"
           id="g126"><path
             id="path128"
             style="fill:none;stroke:#000000;stroke-width:1;stroke-linecap:round;stroke-linejoin:round;stroke-miterlimit:10;stroke-dasharray:none;stroke-opacity:1"
             d="M 0,0 V -82.204" /></g><g
           transform="translate(385.1975,374.0182)"
           id="g130"><path
             id="path132"
             style="fill:none;stroke:#000000;stroke-width:1;stroke-linecap:round;stroke-linejoin:round;stroke-miterlimit:10;stroke-dasharray:none;stroke-opacity:1"
             d="M 0,0 C 0,0 10.339,0.398 16.115,-13.193" /></g><g
           transform="translate(495.159,374.0182)"
           id="g134"><path
             id="path136"
             style="fill:none;stroke:#000000;stroke-width:1;stroke-linecap:round;stroke-linejoin:round;stroke-miterlimit:10;stroke-dasharray:none;stroke-opacity:1"
             d="M 0,0 C 0,0 -10.339,0.398 -16.115,-13.193" /></g></g></g></g></svg>