<?xml version="1.0" encoding="UTF-8" standalone="no"?>
<svg
   xmlns:dc="http://purl.org/dc/elements/1.1/"
   xmlns:cc="http://creativecommons.org/ns#"
   xmlns:rdf="http://www.w3.org/1999/02/22-rdf-syntax-ns#"
   xmlns:svg="http://www.w3.org/2000/svg"
   xmlns="http://www.w3.org/2000/svg"
   viewBox="519 0 420 666"
   height="500"
   width="450"
   xml:space="preserve"
   id="svg2"
   version="1.1"><metadata
     id="metadata8"><rdf:RDF><cc:Work
         rdf:about=""><dc:format>image/svg+xml</dc:format><dc:type
           rdf:resource="http://purl.org/dc/dcmitype/StillImage" /></cc:Work></rdf:RDF></metadata><defs
     id="defs6"><clipPath
       id="clipPath20"
       clipPathUnits="userSpaceOnUse"><path
         id="path18"
         d="M 0,500 H 750 V 0 H 0 Z" /></clipPath><clipPath
       id="clipPath80"
       clipPathUnits="userSpaceOnUse"><path
         id="path78"
         d="m 30.368,99.697 c 1.644,-1.294 38.425,-6.934 39.836,-5.642 v 0 c 1.41,1.293 8.813,24.912 8.813,24.912 v 0 l -47.752,7.485 c 0,0 -2.543,-25.464 -0.897,-26.755" /></clipPath><clipPath
       id="clipPath176"
       clipPathUnits="userSpaceOnUse"><path
         id="path174"
         d="M 0,500 H 750 V 0 H 0 Z" /></clipPath><clipPath
       id="clipPath192"
       clipPathUnits="userSpaceOnUse"><path
         id="path190"
         d="m 318.526,120.121 c 0,0 6.517,-24.747 8.511,-25.383 v 0 c 1.992,-0.637 38.425,6.932 39.295,8.636 v 0 c 0.87,1.704 -0.448,26.422 -0.448,26.422 v 0 z" /></clipPath><clipPath
       id="clipPath288"
       clipPathUnits="userSpaceOnUse"><path
         id="path286"
         d="M 0,500 H 750 V 0 H 0 Z" /></clipPath><clipPath
       id="clipPath376"
       clipPathUnits="userSpaceOnUse"><path
         id="path374"
         d="m 389.384,99.697 c 1.645,-1.294 38.426,-6.934 39.837,-5.642 v 0 c 1.41,1.293 8.813,24.912 8.813,24.912 v 0 l -47.753,7.485 c 0,0 -2.541,-25.464 -0.897,-26.755" /></clipPath><clipPath
       id="clipPath472"
       clipPathUnits="userSpaceOnUse"><path
         id="path470"
         d="M 0,500 H 750 V 0 H 0 Z" /></clipPath><clipPath
       id="clipPath488"
       clipPathUnits="userSpaceOnUse"><path
         id="path486"
         d="m 677.544,120.121 c 0,0 6.515,-24.747 8.509,-25.383 v 0 c 1.993,-0.637 38.426,6.932 39.296,8.636 v 0 c 0.87,1.704 -0.448,26.422 -0.448,26.422 v 0 z" /></clipPath><clipPath
       id="clipPath584"
       clipPathUnits="userSpaceOnUse"><path
         id="path582"
         d="M 0,500 H 750 V 0 H 0 Z" /></clipPath></defs><g
     transform="matrix(1.3333333,0,0,-1.3333333,0,666.66667)"
     id="g10"><path
       id="path12" style="fill:none"
       d="M 0,0 H 750 V 500 H 0 Z" /><g
       id="g14"><g
         clip-path="url(#clipPath20)"
         id="g16"></g></g><g
       id="g74"><g
         clip-path="url(#clipPath80)"
         id="g76"></g></g><g
       id="g170"><g
         clip-path="url(#clipPath176)"
         id="g172"></g></g><g
       id="g186"><g
         clip-path="url(#clipPath192)"
         id="g188"></g></g><g
       id="g282"><g
         clip-path="url(#clipPath288)"
         id="g284"><g
           transform="translate(521.967,427.5303)"
           id="g334"><path
             id="path336"
             style="fill:#ffffff;fill-opacity:1;fill-rule:nonzero;stroke:none"
             d="m 0,0 v 0.034 z m 152.104,-60.142 c 0,0 -0.797,13.895 -8.123,21.586 -7.324,7.691 -46.878,30.441 -73.98,38.66 0,0 -7.126,-6.696 -34.786,-6.935 C 5.832,-7.084 0,0.104 0,0.104 c -20.505,-5.778 -39.488,-15.871 -58.289,-25.889 -7.08,-3.772 -14.499,-7.858 -18.642,-14.727 -2.712,-4.495 -3.751,-9.773 -4.744,-14.928 l 15.433,-103.244 -5.86,-199.602 c 0,0 139.54,-9.156 214.619,-2.197 l -0.622,226.98 z" /></g><g
           transform="translate(521.967,427.5303)"
           id="g338"><path
             id="path340"
             style="fill:none;stroke:#000000;stroke-width:1;stroke-linecap:round;stroke-linejoin:round;stroke-miterlimit:10;stroke-dasharray:none;stroke-opacity:1"
             d="m 0,0 v 0.034 z m 152.104,-60.142 c 0,0 -0.797,13.895 -8.123,21.586 -7.324,7.691 -46.878,30.441 -73.98,38.66 0,0 -7.126,-6.696 -34.786,-6.935 C 5.832,-7.084 0,0.104 0,0.104 c -20.505,-5.778 -39.488,-15.871 -58.289,-25.889 -7.08,-3.772 -14.499,-7.858 -18.642,-14.727 -2.712,-4.495 -3.751,-9.773 -4.744,-14.928 l 15.433,-103.244 -5.86,-199.602 c 0,0 139.54,-9.156 214.619,-2.197 l -0.622,226.98 z" /></g><g
           transform="translate(453.8284,367.1904)"
           id="g342"><path
             id="path344"
             style="fill:#ffffff;fill-opacity:1;fill-rule:nonzero;stroke:none"
             d="m 0,0 -13.536,4.9 c 0,0 -51.133,-184.134 -51.753,-236.255 -0.038,-3.212 0.564,-6.395 1.742,-9.383 l 47.753,-7.485 c 0,0 11.03,20.718 14.683,47.412 0,0 5.559,149.021 5.559,158.871 C 4.448,-32.091 0,0 0,0" /></g><g
           transform="translate(453.8284,367.1904)"
           id="g346"><path
             id="path348"
             style="fill:none;stroke:#000000;stroke-width:1;stroke-linecap:round;stroke-linejoin:round;stroke-miterlimit:10;stroke-dasharray:none;stroke-opacity:1"
             d="m 0,0 -13.536,4.9 c 0,0 -51.133,-184.134 -51.753,-236.255 -0.038,-3.212 0.564,-6.395 1.742,-9.383 l 47.753,-7.485 c 0,0 11.03,20.718 14.683,47.412 0,0 5.559,149.021 5.559,158.871 C 4.448,-32.091 0,0 0,0 Z" /></g><g
           transform="translate(662.0032,362.2178)"
           id="g350"><path
             id="path352"
             style="fill:#ffffff;fill-opacity:1;fill-rule:nonzero;stroke:none"
             d="m 0,0 12.067,5.171 c 0,0 46.386,-163.754 50.92,-237.811 l -48.03,-9.338 c 0,0 -14.056,31.531 -14.957,50.649 -0.901,19.118 -2.505,161.21 -3.008,168.264 C -3.512,-16.013 0,0 0,0" /></g><g
           transform="translate(662.0032,362.2178)"
           id="g354"><path
             id="path356"
             style="fill:none;stroke:#000000;stroke-width:1;stroke-linecap:round;stroke-linejoin:round;stroke-miterlimit:10;stroke-dasharray:none;stroke-opacity:1"
             d="m 0,0 12.067,5.171 c 0,0 46.386,-163.754 50.92,-237.811 l -48.03,-9.338 c 0,0 -14.056,31.531 -14.957,50.649 -0.901,19.118 -2.505,161.21 -3.008,168.264 C -3.512,-16.013 0,0 0,0 Z" /></g><g
           transform="translate(450.6829,387.2017)"
           id="g358"><path
             id="path360"
             style="fill:none;stroke:#000000;stroke-width:1;stroke-linecap:round;stroke-linejoin:round;stroke-miterlimit:10;stroke-dasharray:none;stroke-opacity:1"
             d="M 0,0 C 2.451,-7.211 2.743,-15.892 3.727,-24.324" /></g><g
           transform="translate(663.8616,384.5146)"
           id="g362"><path
             id="path364"
             style="fill:none;stroke:#000000;stroke-width:1;stroke-linecap:round;stroke-linejoin:round;stroke-miterlimit:10;stroke-dasharray:none;stroke-opacity:1"
             d="M 0,0 C -0.895,-8.588 -1.789,-17.176 -2.683,-25.764" /></g><g
           transform="translate(390.2815,126.4521)"
           id="g366"><path
             id="path368"
             style="fill:#ffffff;fill-opacity:1;fill-rule:nonzero;stroke:none"
             d="m 0,0 c 0,0 -2.542,-25.464 -0.897,-26.756 1.645,-1.293 38.426,-6.933 39.836,-5.64 1.411,1.292 8.814,24.912 8.814,24.912 z" /></g></g></g><g
       id="g370"><g
         clip-path="url(#clipPath376)"
         id="g372"><g
           transform="translate(438.3645,120.5859)"
           id="g378"><path
             id="path380"
             style="fill:none;stroke:#000000;stroke-width:1;stroke-linecap:round;stroke-linejoin:round;stroke-miterlimit:10;stroke-dasharray:none;stroke-opacity:1"
             d="M 0,0 -4.811,-31.216" /></g><g
           transform="translate(436.0872,120.9404)"
           id="g382"><path
             id="path384"
             style="fill:none;stroke:#000000;stroke-width:1;stroke-linecap:round;stroke-linejoin:round;stroke-miterlimit:10;stroke-dasharray:none;stroke-opacity:1"
             d="M 0,0 -4.812,-31.216" /></g><g
           transform="translate(433.8098,121.2959)"
           id="g386"><path
             id="path388"
             style="fill:none;stroke:#000000;stroke-width:1;stroke-linecap:round;stroke-linejoin:round;stroke-miterlimit:10;stroke-dasharray:none;stroke-opacity:1"
             d="M 0,0 -4.812,-31.216" /></g><g
           transform="translate(431.5315,121.6504)"
           id="g390"><path
             id="path392"
             style="fill:none;stroke:#000000;stroke-width:1;stroke-linecap:round;stroke-linejoin:round;stroke-miterlimit:10;stroke-dasharray:none;stroke-opacity:1"
             d="M 0,0 -4.811,-31.216" /></g><g
           transform="translate(429.2542,122.0059)"
           id="g394"><path
             id="path396"
             style="fill:none;stroke:#000000;stroke-width:1;stroke-linecap:round;stroke-linejoin:round;stroke-miterlimit:10;stroke-dasharray:none;stroke-opacity:1"
             d="M 0,0 -4.812,-31.216" /></g><g
           transform="translate(426.9768,122.3604)"
           id="g398"><path
             id="path400"
             style="fill:none;stroke:#000000;stroke-width:1;stroke-linecap:round;stroke-linejoin:round;stroke-miterlimit:10;stroke-dasharray:none;stroke-opacity:1"
             d="M 0,0 -4.812,-31.216" /></g><g
           transform="translate(424.6985,122.7158)"
           id="g402"><path
             id="path404"
             style="fill:none;stroke:#000000;stroke-width:1;stroke-linecap:round;stroke-linejoin:round;stroke-miterlimit:10;stroke-dasharray:none;stroke-opacity:1"
             d="M 0,0 -4.811,-31.216" /></g><g
           transform="translate(422.4211,123.0703)"
           id="g406"><path
             id="path408"
             style="fill:none;stroke:#000000;stroke-width:1;stroke-linecap:round;stroke-linejoin:round;stroke-miterlimit:10;stroke-dasharray:none;stroke-opacity:1"
             d="M 0,0 -4.812,-31.216" /></g><g
           transform="translate(420.1438,123.4258)"
           id="g410"><path
             id="path412"
             style="fill:none;stroke:#000000;stroke-width:1;stroke-linecap:round;stroke-linejoin:round;stroke-miterlimit:10;stroke-dasharray:none;stroke-opacity:1"
             d="M 0,0 -4.812,-31.216" /></g><g
           transform="translate(417.8655,123.7803)"
           id="g414"><path
             id="path416"
             style="fill:none;stroke:#000000;stroke-width:1;stroke-linecap:round;stroke-linejoin:round;stroke-miterlimit:10;stroke-dasharray:none;stroke-opacity:1"
             d="M 0,0 -4.811,-31.216" /></g><g
           transform="translate(415.5881,124.1357)"
           id="g418"><path
             id="path420"
             style="fill:none;stroke:#000000;stroke-width:1;stroke-linecap:round;stroke-linejoin:round;stroke-miterlimit:10;stroke-dasharray:none;stroke-opacity:1"
             d="M 0,0 -4.812,-31.216" /></g><g
           transform="translate(413.3108,124.4902)"
           id="g422"><path
             id="path424"
             style="fill:none;stroke:#000000;stroke-width:1;stroke-linecap:round;stroke-linejoin:round;stroke-miterlimit:10;stroke-dasharray:none;stroke-opacity:1"
             d="M 0,0 -4.812,-31.216" /></g><g
           transform="translate(411.0325,124.8457)"
           id="g426"><path
             id="path428"
             style="fill:none;stroke:#000000;stroke-width:1;stroke-linecap:round;stroke-linejoin:round;stroke-miterlimit:10;stroke-dasharray:none;stroke-opacity:1"
             d="M 0,0 -4.812,-31.216" /></g><g
           transform="translate(408.7551,125.2002)"
           id="g430"><path
             id="path432"
             style="fill:none;stroke:#000000;stroke-width:1;stroke-linecap:round;stroke-linejoin:round;stroke-miterlimit:10;stroke-dasharray:none;stroke-opacity:1"
             d="M 0,0 -4.812,-31.216" /></g><g
           transform="translate(406.4778,125.5557)"
           id="g434"><path
             id="path436"
             style="fill:none;stroke:#000000;stroke-width:1;stroke-linecap:round;stroke-linejoin:round;stroke-miterlimit:10;stroke-dasharray:none;stroke-opacity:1"
             d="M 0,0 -4.812,-31.216" /></g><g
           transform="translate(404.1995,125.9102)"
           id="g438"><path
             id="path440"
             style="fill:none;stroke:#000000;stroke-width:1;stroke-linecap:round;stroke-linejoin:round;stroke-miterlimit:10;stroke-dasharray:none;stroke-opacity:1"
             d="M 0,0 -4.812,-31.216" /></g><g
           transform="translate(401.9221,126.2656)"
           id="g442"><path
             id="path444"
             style="fill:none;stroke:#000000;stroke-width:1;stroke-linecap:round;stroke-linejoin:round;stroke-miterlimit:10;stroke-dasharray:none;stroke-opacity:1"
             d="M 0,0 -4.812,-31.216" /></g><g
           transform="translate(399.6448,126.6201)"
           id="g446"><path
             id="path448"
             style="fill:none;stroke:#000000;stroke-width:1;stroke-linecap:round;stroke-linejoin:round;stroke-miterlimit:10;stroke-dasharray:none;stroke-opacity:1"
             d="M 0,0 -4.812,-31.216" /></g><g
           transform="translate(397.3665,126.9756)"
           id="g450"><path
             id="path452"
             style="fill:none;stroke:#000000;stroke-width:1;stroke-linecap:round;stroke-linejoin:round;stroke-miterlimit:10;stroke-dasharray:none;stroke-opacity:1"
             d="M 0,0 -4.812,-31.216" /></g><g
           transform="translate(395.0891,127.3301)"
           id="g454"><path
             id="path456"
             style="fill:none;stroke:#000000;stroke-width:1;stroke-linecap:round;stroke-linejoin:round;stroke-miterlimit:10;stroke-dasharray:none;stroke-opacity:1"
             d="M 0,0 -4.812,-31.216" /></g><g
           transform="translate(392.8118,127.6855)"
           id="g458"><path
             id="path460"
             style="fill:none;stroke:#000000;stroke-width:1;stroke-linecap:round;stroke-linejoin:round;stroke-miterlimit:10;stroke-dasharray:none;stroke-opacity:1"
             d="M 0,0 -4.812,-31.216" /></g><g
           transform="translate(390.5334,128.04)"
           id="g462"><path
             id="path464"
             style="fill:none;stroke:#000000;stroke-width:1;stroke-linecap:round;stroke-linejoin:round;stroke-miterlimit:10;stroke-dasharray:none;stroke-opacity:1"
             d="M 0,0 -4.812,-31.216" /></g></g></g><g
       id="g466"><g
         clip-path="url(#clipPath472)"
         id="g468"><g
           transform="translate(390.2815,126.4521)"
           id="g474"><path
             id="path476"
             style="fill:none;stroke:#000000;stroke-width:1;stroke-linecap:round;stroke-linejoin:round;stroke-miterlimit:10;stroke-dasharray:none;stroke-opacity:1"
             d="m 0,0 c 0,0 -2.542,-25.464 -0.897,-26.756 1.645,-1.293 38.426,-6.933 39.836,-5.64 1.411,1.292 8.814,24.912 8.814,24.912 z" /></g><g
           transform="translate(677.5442,120.1211)"
           id="g478"><path
             id="path480"
             style="fill:#ffffff;fill-opacity:1;fill-rule:nonzero;stroke:none"
             d="m 0,0 c 0,0 6.516,-24.747 8.509,-25.383 1.993,-0.637 38.427,6.932 39.296,8.636 0.87,1.704 -0.449,26.422 -0.449,26.422 z" /></g></g></g><g
       id="g482"><g
         clip-path="url(#clipPath488)"
         id="g484"><g
           transform="translate(724.6458,131.4277)"
           id="g490"><path
             id="path492"
             style="fill:none;stroke:#000000;stroke-width:1;stroke-linecap:round;stroke-linejoin:round;stroke-miterlimit:10;stroke-dasharray:none;stroke-opacity:1"
             d="M 0,0 6.4,-30.93" /></g><g
           transform="translate(722.387,130.9639)"
           id="g494"><path
             id="path496"
             style="fill:none;stroke:#000000;stroke-width:1;stroke-linecap:round;stroke-linejoin:round;stroke-miterlimit:10;stroke-dasharray:none;stroke-opacity:1"
             d="M 0,0 6.401,-30.929" /></g><g
           transform="translate(720.1292,130.501)"
           id="g498"><path
             id="path500"
             style="fill:none;stroke:#000000;stroke-width:1;stroke-linecap:round;stroke-linejoin:round;stroke-miterlimit:10;stroke-dasharray:none;stroke-opacity:1"
             d="M 0,0 6.4,-30.93" /></g><g
           transform="translate(717.8713,130.0371)"
           id="g502"><path
             id="path504"
             style="fill:none;stroke:#000000;stroke-width:1;stroke-linecap:round;stroke-linejoin:round;stroke-miterlimit:10;stroke-dasharray:none;stroke-opacity:1"
             d="M 0,0 6.4,-30.929" /></g><g
           transform="translate(715.6125,129.5742)"
           id="g506"><path
             id="path508"
             style="fill:none;stroke:#000000;stroke-width:1;stroke-linecap:round;stroke-linejoin:round;stroke-miterlimit:10;stroke-dasharray:none;stroke-opacity:1"
             d="M 0,0 6.401,-30.93" /></g><g
           transform="translate(713.3547,129.1104)"
           id="g510"><path
             id="path512"
             style="fill:none;stroke:#000000;stroke-width:1;stroke-linecap:round;stroke-linejoin:round;stroke-miterlimit:10;stroke-dasharray:none;stroke-opacity:1"
             d="M 0,0 6.4,-30.929" /></g><g
           transform="translate(711.0969,128.6475)"
           id="g514"><path
             id="path516"
             style="fill:none;stroke:#000000;stroke-width:1;stroke-linecap:round;stroke-linejoin:round;stroke-miterlimit:10;stroke-dasharray:none;stroke-opacity:1"
             d="M 0,0 6.4,-30.93" /></g><g
           transform="translate(708.8381,128.1836)"
           id="g518"><path
             id="path520"
             style="fill:none;stroke:#000000;stroke-width:1;stroke-linecap:round;stroke-linejoin:round;stroke-miterlimit:10;stroke-dasharray:none;stroke-opacity:1"
             d="M 0,0 6.401,-30.929" /></g><g
           transform="translate(706.5803,127.7207)"
           id="g522"><path
             id="path524"
             style="fill:none;stroke:#000000;stroke-width:1;stroke-linecap:round;stroke-linejoin:round;stroke-miterlimit:10;stroke-dasharray:none;stroke-opacity:1"
             d="M 0,0 6.4,-30.93" /></g><g
           transform="translate(704.3225,127.2568)"
           id="g526"><path
             id="path528"
             style="fill:none;stroke:#000000;stroke-width:1;stroke-linecap:round;stroke-linejoin:round;stroke-miterlimit:10;stroke-dasharray:none;stroke-opacity:1"
             d="M 0,0 6.4,-30.929" /></g><g
           transform="translate(702.0637,126.7939)"
           id="g530"><path
             id="path532"
             style="fill:none;stroke:#000000;stroke-width:1;stroke-linecap:round;stroke-linejoin:round;stroke-miterlimit:10;stroke-dasharray:none;stroke-opacity:1"
             d="M 0,0 6.401,-30.93" /></g><g
           transform="translate(699.8059,126.3301)"
           id="g534"><path
             id="path536"
             style="fill:none;stroke:#000000;stroke-width:1;stroke-linecap:round;stroke-linejoin:round;stroke-miterlimit:10;stroke-dasharray:none;stroke-opacity:1"
             d="M 0,0 6.401,-30.929" /></g><g
           transform="translate(697.5481,125.8672)"
           id="g538"><path
             id="path540"
             style="fill:none;stroke:#000000;stroke-width:1;stroke-linecap:round;stroke-linejoin:round;stroke-miterlimit:10;stroke-dasharray:none;stroke-opacity:1"
             d="M 0,0 6.4,-30.929" /></g><g
           transform="translate(695.2893,125.4033)"
           id="g542"><path
             id="path544"
             style="fill:none;stroke:#000000;stroke-width:1;stroke-linecap:round;stroke-linejoin:round;stroke-miterlimit:10;stroke-dasharray:none;stroke-opacity:1"
             d="M 0,0 6.401,-30.929" /></g><g
           transform="translate(693.0315,124.9404)"
           id="g546"><path
             id="path548"
             style="fill:none;stroke:#000000;stroke-width:1;stroke-linecap:round;stroke-linejoin:round;stroke-miterlimit:10;stroke-dasharray:none;stroke-opacity:1"
             d="M 0,0 6.401,-30.929" /></g><g
           transform="translate(690.7737,124.4775)"
           id="g550"><path
             id="path552"
             style="fill:none;stroke:#000000;stroke-width:1;stroke-linecap:round;stroke-linejoin:round;stroke-miterlimit:10;stroke-dasharray:none;stroke-opacity:1"
             d="M 0,0 6.4,-30.93" /></g><g
           transform="translate(688.5149,124.0137)"
           id="g554"><path
             id="path556"
             style="fill:none;stroke:#000000;stroke-width:1;stroke-linecap:round;stroke-linejoin:round;stroke-miterlimit:10;stroke-dasharray:none;stroke-opacity:1"
             d="M 0,0 6.401,-30.929" /></g><g
           transform="translate(686.2571,123.5508)"
           id="g558"><path
             id="path560"
             style="fill:none;stroke:#000000;stroke-width:1;stroke-linecap:round;stroke-linejoin:round;stroke-miterlimit:10;stroke-dasharray:none;stroke-opacity:1"
             d="M 0,0 6.401,-30.93" /></g><g
           transform="translate(683.9993,123.0869)"
           id="g562"><path
             id="path564"
             style="fill:none;stroke:#000000;stroke-width:1;stroke-linecap:round;stroke-linejoin:round;stroke-miterlimit:10;stroke-dasharray:none;stroke-opacity:1"
             d="M 0,0 6.4,-30.929" /></g><g
           transform="translate(681.7415,122.624)"
           id="g566"><path
             id="path568"
             style="fill:none;stroke:#000000;stroke-width:1;stroke-linecap:round;stroke-linejoin:round;stroke-miterlimit:10;stroke-dasharray:none;stroke-opacity:1"
             d="M 0,0 6.4,-30.93" /></g><g
           transform="translate(679.4827,122.1602)"
           id="g570"><path
             id="path572"
             style="fill:none;stroke:#000000;stroke-width:1;stroke-linecap:round;stroke-linejoin:round;stroke-miterlimit:10;stroke-dasharray:none;stroke-opacity:1"
             d="M 0,0 6.401,-30.929" /></g><g
           transform="translate(677.2249,121.6973)"
           id="g574"><path
             id="path576"
             style="fill:none;stroke:#000000;stroke-width:1;stroke-linecap:round;stroke-linejoin:round;stroke-miterlimit:10;stroke-dasharray:none;stroke-opacity:1"
             d="M 0,0 6.4,-30.93" /></g></g></g><g
       id="g578"><g
         clip-path="url(#clipPath584)"
         id="g580"><g
           transform="translate(677.5442,120.1211)"
           id="g586"><path
             id="path588"
             style="fill:none;stroke:#000000;stroke-width:1;stroke-linecap:round;stroke-linejoin:round;stroke-miterlimit:10;stroke-dasharray:none;stroke-opacity:1"
             d="m 0,0 c 0,0 6.516,-24.747 8.509,-25.383 1.993,-0.637 38.427,6.932 39.296,8.636 0.87,1.704 -0.449,26.422 -0.449,26.422 z" /></g><g
           transform="translate(389.5667,128.5254)"
           id="g590"><path
             id="path592"
             style="fill:none;stroke:#000000;stroke-width:0.5;stroke-linecap:round;stroke-linejoin:round;stroke-miterlimit:10;stroke-dasharray:1.291, 1.291;stroke-dashoffset:0;stroke-opacity:1"
             d="M 0,0 49.549,-7.896" /></g><g
           transform="translate(676.6946,122.0332)"
           id="g594"><path
             id="path596"
             style="fill:none;stroke:#000000;stroke-width:0.5;stroke-linecap:round;stroke-linejoin:round;stroke-miterlimit:10;stroke-dasharray:1.291, 1.291;stroke-dashoffset:0;stroke-opacity:1"
             d="M 0,0 48.099,9.357" /></g><g
           transform="translate(450.0696,76.1992)"
           id="g598"><path
             id="path600"
             style="fill:#ffffff;fill-opacity:1;fill-rule:nonzero;stroke:#000000;stroke-width:1;stroke-linecap:round;stroke-linejoin:round;stroke-miterlimit:10;stroke-dasharray:none;stroke-opacity:1"
             d="M 0,0 C 0,0 137.331,-11.082 214.397,-3.022" /></g><g
           transform="translate(450.0696,77.876)"
           id="g602"><path
             id="path604"
             style="fill:none;stroke:#000000;stroke-width:0.5;stroke-linecap:round;stroke-linejoin:round;stroke-miterlimit:10;stroke-dasharray:1.291, 1.291;stroke-dashoffset:0;stroke-opacity:1"
             d="M 0,0 C 0,0 137.331,-11.082 214.397,-3.022" /></g><g
           transform="translate(513.9456,425.1377)"
           id="g606"><path
             id="path608"
             style="fill:none;stroke:#000000;stroke-width:1;stroke-linecap:round;stroke-linejoin:round;stroke-miterlimit:10;stroke-dasharray:none;stroke-opacity:1"
             d="m 0,0 c 0,0 12.667,-14.248 46.451,-12.582 28.431,1.403 41.761,11.553 41.761,11.553" /></g><g
           transform="translate(515.8225,425.498)"
           id="g610"><path
             id="path612"
             style="fill:none;stroke:#000000;stroke-width:0.49399999;stroke-linecap:round;stroke-linejoin:round;stroke-miterlimit:10;stroke-dasharray:1.275, 1.275;stroke-dashoffset:0;stroke-opacity:1"
             d="M 0,0 C 0,0 11.157,-13.078 44.14,-11.411 71.894,-10.009 84.615,-0.74 84.615,-0.74" /></g><g
           transform="translate(440.8596,125.5332)"
           id="g614"><path
             id="path616"
             style="fill:#c0c0c0;fill-opacity:1;fill-rule:nonzero;stroke:none"
             d="m 0,0 c -3.093,5.918 -5.549,12.195 -7.321,18.668 -1.801,6.467 -2.932,13.123 -3.47,19.822 -0.5,6.702 -0.406,13.453 0.379,20.12 0.757,6.669 2.22,13.249 4.369,19.572 C -7.441,71.653 -8.369,65.067 -8.857,58.465 -9.317,51.86 -9.324,45.232 -8.798,38.645 -7.805,25.454 -4.756,12.469 0,0" /></g><g
           transform="translate(694.2551,199.5459)"
           id="g618"><path
             id="path620"
             style="fill:#c0c0c0;fill-opacity:1;fill-rule:nonzero;stroke:none"
             d="m 0,0 c 2.679,-12.469 3.006,-25.455 1.455,-38.159 -0.807,-6.354 -2.068,-12.652 -3.861,-18.793 -1.765,-6.149 -4.073,-12.135 -6.891,-17.85 2.1,6.016 3.888,12.103 5.382,18.249 1.467,6.153 2.625,12.371 3.387,18.64 C 1.059,-25.374 1.116,-12.687 0,0" /></g><g
           transform="translate(664.7522,155.4141)"
           id="g622"><path
             id="path624"
             style="fill:#c0c0c0;fill-opacity:1;fill-rule:nonzero;stroke:none"
             d="m 0,0 c -3.002,-6.071 -6.859,-11.754 -11.388,-16.852 -4.508,-5.119 -9.675,-9.66 -15.274,-13.573 -5.62,-3.883 -11.681,-7.138 -18.052,-9.578 -6.357,-2.465 -13.03,-4.094 -19.767,-4.785 6.612,1.46 13.024,3.568 19.175,6.229 6.14,2.689 12.02,5.946 17.503,9.776 5.505,3.8 10.61,8.172 15.273,12.986 C -7.888,-10.962 -3.675,-5.687 0,0" /></g><g
           transform="translate(454.0559,185.4785)"
           id="g626"><path
             id="path628"
             style="fill:#c0c0c0;fill-opacity:1;fill-rule:nonzero;stroke:none"
             d="m 0,0 c 1.554,-5.839 3.868,-11.4 6.783,-16.594 2.941,-5.179 6.495,-9.997 10.607,-14.285 4.085,-4.312 8.724,-8.096 13.756,-11.283 5.046,-3.162 10.488,-5.745 16.244,-7.581 -5.948,1.08 -11.74,3.225 -17.044,6.241 -5.325,2.991 -10.172,6.828 -14.404,11.244 -4.204,4.443 -7.801,9.47 -10.531,14.933 C 2.657,-11.88 0.793,-5.992 0,0" /></g><g
           transform="translate(473.5706,371.1499)"
           id="g630"><path
             id="path632"
             style="fill:#c0c0c0;fill-opacity:1;fill-rule:nonzero;stroke:none"
             d="m 0,0 c -1.771,-4.285 -3.492,-8.553 -5.064,-12.872 -1.56,-4.322 -3.012,-8.674 -4.269,-13.085 -1.293,-4.4 -2.392,-8.855 -3.382,-13.341 -0.978,-4.491 -1.805,-9.019 -2.6,-13.586 -0.035,4.637 0.366,9.277 1.065,13.869 0.687,4.597 1.72,9.141 2.997,13.614 1.313,4.462 2.869,8.855 4.745,13.107 C -4.645,-8.038 -2.505,-3.903 0,0" /></g><g
           transform="translate(648.9504,357.6313)"
           id="g634"><path
             id="path636"
             style="fill:#c0c0c0;fill-opacity:1;fill-rule:nonzero;stroke:none"
             d="m 0,0 c 1.716,-2.136 3.149,-4.481 4.385,-6.924 1.249,-2.44 2.258,-4.998 3.101,-7.608 0.809,-2.62 1.452,-5.295 1.83,-8.01 0.391,-2.709 0.562,-5.453 0.38,-8.187 -0.647,2.66 -1.244,5.283 -1.911,7.882 -0.679,2.595 -1.385,5.172 -2.205,7.714 -0.784,2.552 -1.685,5.068 -2.618,7.583 C 2.017,-5.039 0.998,-2.549 0,0" /></g></g></g></g></svg>