<?xml version="1.0" encoding="UTF-8" standalone="no"?>
<svg
   xmlns:dc="http://purl.org/dc/elements/1.1/"
   xmlns:cc="http://creativecommons.org/ns#"
   xmlns:rdf="http://www.w3.org/1999/02/22-rdf-syntax-ns#"
   xmlns:svg="http://www.w3.org/2000/svg"
   xmlns="http://www.w3.org/2000/svg"
   viewBox="40 0 420 666"
   height="500"
   width="450"
   xml:space="preserve"
   id="svg2"
   version="1.1"><metadata
     id="metadata8"><rdf:RDF><cc:Work
         rdf:about=""><dc:format>image/svg+xml</dc:format><dc:type
           rdf:resource="http://purl.org/dc/dcmitype/StillImage" /></cc:Work></rdf:RDF></metadata><defs
     id="defs6"><clipPath
       id="clipPath20"
       clipPathUnits="userSpaceOnUse"><path
         id="path18"
         d="M 0,500 H 750 V 0 H 0 Z" /></clipPath><clipPath
       id="clipPath80"
       clipPathUnits="userSpaceOnUse"><path
         id="path78"
         d="m 30.368,99.697 c 1.644,-1.294 38.425,-6.934 39.836,-5.642 v 0 c 1.41,1.293 8.813,24.912 8.813,24.912 v 0 l -47.752,7.485 c 0,0 -2.543,-25.464 -0.897,-26.755" /></clipPath><clipPath
       id="clipPath176"
       clipPathUnits="userSpaceOnUse"><path
         id="path174"
         d="M 0,500 H 750 V 0 H 0 Z" /></clipPath><clipPath
       id="clipPath192"
       clipPathUnits="userSpaceOnUse"><path
         id="path190"
         d="m 318.526,120.121 c 0,0 6.517,-24.747 8.511,-25.383 v 0 c 1.992,-0.637 38.425,6.932 39.295,8.636 v 0 c 0.87,1.704 -0.448,26.422 -0.448,26.422 v 0 z" /></clipPath><clipPath
       id="clipPath288"
       clipPathUnits="userSpaceOnUse"><path
         id="path286"
         d="M 0,500 H 750 V 0 H 0 Z" /></clipPath><clipPath
       id="clipPath376"
       clipPathUnits="userSpaceOnUse"><path
         id="path374"
         d="m 389.384,99.697 c 1.645,-1.294 38.426,-6.934 39.837,-5.642 v 0 c 1.41,1.293 8.813,24.912 8.813,24.912 v 0 l -47.753,7.485 c 0,0 -2.541,-25.464 -0.897,-26.755" /></clipPath><clipPath
       id="clipPath472"
       clipPathUnits="userSpaceOnUse"><path
         id="path470"
         d="M 0,500 H 750 V 0 H 0 Z" /></clipPath><clipPath
       id="clipPath488"
       clipPathUnits="userSpaceOnUse"><path
         id="path486"
         d="m 677.544,120.121 c 0,0 6.515,-24.747 8.509,-25.383 v 0 c 1.993,-0.637 38.426,6.932 39.296,8.636 v 0 c 0.87,1.704 -0.448,26.422 -0.448,26.422 v 0 z" /></clipPath><clipPath
       id="clipPath584"
       clipPathUnits="userSpaceOnUse"><path
         id="path582"
         d="M 0,500 H 750 V 0 H 0 Z" /></clipPath></defs><g
     transform="matrix(1.3333333,0,0,-1.3333333,0,666.66667)"
     id="g10"><path
       id="path12" style="fill:none"
       d="M 0,0 H 750 V 500 H 0 Z" /><g
       id="g14"><g
         clip-path="url(#clipPath20)"
         id="g16"><g
           transform="translate(162.9505,427.6343)"
           id="g22"><path
             id="path24"
             style="fill:#dcdcdc;fill-opacity:1;fill-rule:nonzero;stroke:none"
             d="M 0,0 C 0,0 5.832,-7.188 35.214,-6.935 62.875,-6.696 70,0 70,0 70,0 76.581,-40.506 38.115,-38.724 -0.351,-36.942 0,0 0,0" /></g><g
           transform="translate(162.9505,427.6343)"
           id="g26"><path
             id="path28"
             style="fill:none;stroke:#000000;stroke-width:0.78799999;stroke-linecap:round;stroke-linejoin:round;stroke-miterlimit:10;stroke-dasharray:none;stroke-opacity:1"
             d="M 0,0 C 0,0 5.832,-7.188 35.214,-6.935 62.875,-6.696 70,0 70,0 70,0 76.581,-40.506 38.115,-38.724 -0.351,-36.942 0,0 0,0 Z" /></g><g
           transform="translate(161.8655,420.249)"
           id="g30"><path
             id="path32"
             style="fill:none;stroke:#000000;stroke-width:1;stroke-linecap:round;stroke-linejoin:round;stroke-miterlimit:10;stroke-dasharray:none;stroke-opacity:1"
             d="M 0,0 C 0,0 12.054,-9.014 39.515,-7.693 65.755,-6.431 75.255,0 75.255,0" /></g><g
           transform="translate(161.8655,422.1978)"
           id="g34"><path
             id="path36"
             style="fill:none;stroke:#000000;stroke-width:0.5;stroke-linecap:round;stroke-linejoin:round;stroke-miterlimit:10;stroke-dasharray:1.291, 1.291;stroke-dashoffset:0;stroke-opacity:1"
             d="M 0,0 C 0,0 12.054,-9.014 39.515,-7.693 65.755,-6.431 75.255,0 75.255,0" /></g><g
           transform="translate(162.9505,427.6343)"
           id="g38"><path
             id="path40"
             style="fill:#ffffff;fill-opacity:1;fill-rule:nonzero;stroke:none"
             d="m 0,0 c -20.506,-5.778 -39.488,-15.871 -58.29,-25.889 -7.08,-3.772 -14.498,-7.858 -18.642,-14.727 -2.712,-4.495 -3.75,-9.773 -4.743,-14.928 l 15.433,-103.244 -5.861,-199.602 c 0,0 139.54,-9.156 214.62,-2.197 l -0.623,226.98 10.21,73.361 c 0,0 -0.797,13.895 -8.123,21.586 C 136.656,-30.969 97.103,-8.219 70,0 70,0 69.463,-34.295 37.165,-34.136 -0.381,-33.951 0,0 0,0" /></g><g
           transform="translate(162.9505,427.6343)"
           id="g42"><path
             id="path44"
             style="fill:none;stroke:#000000;stroke-width:1;stroke-linecap:round;stroke-linejoin:round;stroke-miterlimit:10;stroke-dasharray:none;stroke-opacity:1"
             d="m 0,0 c -20.506,-5.778 -39.488,-15.871 -58.29,-25.889 -7.08,-3.772 -14.498,-7.858 -18.642,-14.727 -2.712,-4.495 -3.75,-9.773 -4.743,-14.928 l 15.433,-103.244 -5.861,-199.602 c 0,0 139.54,-9.156 214.62,-2.197 l -0.623,226.98 10.21,73.361 c 0,0 -0.797,13.895 -8.123,21.586 C 136.656,-30.969 97.103,-8.219 70,0 70,0 69.463,-34.295 37.165,-34.136 -0.381,-33.951 0,0 0,0 Z" /></g><g
           transform="translate(94.8108,367.1904)"
           id="g46"><path
             id="path48"
             style="fill:#ffffff;fill-opacity:1;fill-rule:nonzero;stroke:none"
             d="m 0,0 -13.535,4.9 c 0,0 -51.134,-184.134 -51.754,-236.255 -0.038,-3.212 0.564,-6.395 1.743,-9.383 l 47.752,-7.485 c 0,0 11.03,20.718 14.683,47.412 0,0 5.559,149.021 5.559,158.871 C 4.448,-32.091 0,0 0,0" /></g><g
           transform="translate(94.8108,367.1904)"
           id="g50"><path
             id="path52"
             style="fill:none;stroke:#000000;stroke-width:1;stroke-linecap:round;stroke-linejoin:round;stroke-miterlimit:10;stroke-dasharray:none;stroke-opacity:1"
             d="m 0,0 -13.535,4.9 c 0,0 -51.134,-184.134 -51.754,-236.255 -0.038,-3.212 0.564,-6.395 1.743,-9.383 l 47.752,-7.485 c 0,0 11.03,20.718 14.683,47.412 0,0 5.559,149.021 5.559,158.871 C 4.448,-32.091 0,0 0,0 Z" /></g><g
           transform="translate(302.9856,362.2178)"
           id="g54"><path
             id="path56"
             style="fill:#ffffff;fill-opacity:1;fill-rule:nonzero;stroke:none"
             d="m 0,0 12.068,5.171 c 0,0 46.386,-163.754 50.919,-237.811 l -48.03,-9.338 c 0,0 -14.056,31.531 -14.957,50.649 -0.901,19.118 -2.504,161.21 -3.008,168.264 C -3.512,-16.013 0,0 0,0" /></g><g
           transform="translate(302.9856,362.2178)"
           id="g58"><path
             id="path60"
             style="fill:none;stroke:#000000;stroke-width:1;stroke-linecap:round;stroke-linejoin:round;stroke-miterlimit:10;stroke-dasharray:none;stroke-opacity:1"
             d="m 0,0 12.068,5.171 c 0,0 46.386,-163.754 50.919,-237.811 l -48.03,-9.338 c 0,0 -14.056,31.531 -14.957,50.649 -0.901,19.118 -2.504,161.21 -3.008,168.264 C -3.512,-16.013 0,0 0,0 Z" /></g><g
           transform="translate(91.6653,387.2017)"
           id="g62"><path
             id="path64"
             style="fill:none;stroke:#000000;stroke-width:1;stroke-linecap:round;stroke-linejoin:round;stroke-miterlimit:10;stroke-dasharray:none;stroke-opacity:1"
             d="M 0,0 C 2.452,-7.211 2.743,-15.892 3.728,-24.324" /></g><g
           transform="translate(304.844,384.5146)"
           id="g66"><path
             id="path68"
             style="fill:none;stroke:#000000;stroke-width:1;stroke-linecap:round;stroke-linejoin:round;stroke-miterlimit:10;stroke-dasharray:none;stroke-opacity:1"
             d="M 0,0 C -0.895,-8.588 -1.788,-17.176 -2.683,-25.764" /></g><g
           transform="translate(31.2649,126.4521)"
           id="g70"><path
             id="path72"
             style="fill:#ffffff;fill-opacity:1;fill-rule:nonzero;stroke:none"
             d="m 0,0 c 0,0 -2.543,-25.464 -0.897,-26.756 1.644,-1.293 38.425,-6.933 39.835,-5.64 1.411,1.292 8.814,24.912 8.814,24.912 z" /></g></g></g><g
       id="g74"><g
         clip-path="url(#clipPath80)"
         id="g76"><g
           transform="translate(79.3479,120.5859)"
           id="g82"><path
             id="path84"
             style="fill:none;stroke:#000000;stroke-width:1;stroke-linecap:round;stroke-linejoin:round;stroke-miterlimit:10;stroke-dasharray:none;stroke-opacity:1"
             d="M 0,0 -4.812,-31.216" /></g><g
           transform="translate(77.0696,120.9404)"
           id="g86"><path
             id="path88"
             style="fill:none;stroke:#000000;stroke-width:1;stroke-linecap:round;stroke-linejoin:round;stroke-miterlimit:10;stroke-dasharray:none;stroke-opacity:1"
             d="M 0,0 -4.811,-31.216" /></g><g
           transform="translate(74.7923,121.2959)"
           id="g90"><path
             id="path92"
             style="fill:none;stroke:#000000;stroke-width:1;stroke-linecap:round;stroke-linejoin:round;stroke-miterlimit:10;stroke-dasharray:none;stroke-opacity:1"
             d="M 0,0 -4.812,-31.216" /></g><g
           transform="translate(72.5149,121.6504)"
           id="g94"><path
             id="path96"
             style="fill:none;stroke:#000000;stroke-width:1;stroke-linecap:round;stroke-linejoin:round;stroke-miterlimit:10;stroke-dasharray:none;stroke-opacity:1"
             d="M 0,0 -4.812,-31.216" /></g><g
           transform="translate(70.2366,122.0059)"
           id="g98"><path
             id="path100"
             style="fill:none;stroke:#000000;stroke-width:1;stroke-linecap:round;stroke-linejoin:round;stroke-miterlimit:10;stroke-dasharray:none;stroke-opacity:1"
             d="M 0,0 -4.811,-31.216" /></g><g
           transform="translate(67.9592,122.3604)"
           id="g102"><path
             id="path104"
             style="fill:none;stroke:#000000;stroke-width:1;stroke-linecap:round;stroke-linejoin:round;stroke-miterlimit:10;stroke-dasharray:none;stroke-opacity:1"
             d="M 0,0 -4.812,-31.216" /></g><g
           transform="translate(65.6819,122.7158)"
           id="g106"><path
             id="path108"
             style="fill:none;stroke:#000000;stroke-width:1;stroke-linecap:round;stroke-linejoin:round;stroke-miterlimit:10;stroke-dasharray:none;stroke-opacity:1"
             d="M 0,0 -4.812,-31.216" /></g><g
           transform="translate(63.4036,123.0703)"
           id="g110"><path
             id="path112"
             style="fill:none;stroke:#000000;stroke-width:1;stroke-linecap:round;stroke-linejoin:round;stroke-miterlimit:10;stroke-dasharray:none;stroke-opacity:1"
             d="M 0,0 -4.811,-31.216" /></g><g
           transform="translate(61.1262,123.4258)"
           id="g114"><path
             id="path116"
             style="fill:none;stroke:#000000;stroke-width:1;stroke-linecap:round;stroke-linejoin:round;stroke-miterlimit:10;stroke-dasharray:none;stroke-opacity:1"
             d="M 0,0 -4.812,-31.216" /></g><g
           transform="translate(58.8489,123.7803)"
           id="g118"><path
             id="path120"
             style="fill:none;stroke:#000000;stroke-width:1;stroke-linecap:round;stroke-linejoin:round;stroke-miterlimit:10;stroke-dasharray:none;stroke-opacity:1"
             d="M 0,0 -4.812,-31.216" /></g><g
           transform="translate(56.5706,124.1357)"
           id="g122"><path
             id="path124"
             style="fill:none;stroke:#000000;stroke-width:1;stroke-linecap:round;stroke-linejoin:round;stroke-miterlimit:10;stroke-dasharray:none;stroke-opacity:1"
             d="M 0,0 -4.811,-31.216" /></g><g
           transform="translate(54.2932,124.4902)"
           id="g126"><path
             id="path128"
             style="fill:none;stroke:#000000;stroke-width:1;stroke-linecap:round;stroke-linejoin:round;stroke-miterlimit:10;stroke-dasharray:none;stroke-opacity:1"
             d="M 0,0 -4.812,-31.216" /></g><g
           transform="translate(52.0159,124.8457)"
           id="g130"><path
             id="path132"
             style="fill:none;stroke:#000000;stroke-width:1;stroke-linecap:round;stroke-linejoin:round;stroke-miterlimit:10;stroke-dasharray:none;stroke-opacity:1"
             d="M 0,0 -4.812,-31.216" /></g><g
           transform="translate(49.7376,125.2002)"
           id="g134"><path
             id="path136"
             style="fill:none;stroke:#000000;stroke-width:1;stroke-linecap:round;stroke-linejoin:round;stroke-miterlimit:10;stroke-dasharray:none;stroke-opacity:1"
             d="M 0,0 -4.811,-31.216" /></g><g
           transform="translate(47.4602,125.5557)"
           id="g138"><path
             id="path140"
             style="fill:none;stroke:#000000;stroke-width:1;stroke-linecap:round;stroke-linejoin:round;stroke-miterlimit:10;stroke-dasharray:none;stroke-opacity:1"
             d="M 0,0 -4.812,-31.216" /></g><g
           transform="translate(45.1829,125.9102)"
           id="g142"><path
             id="path144"
             style="fill:none;stroke:#000000;stroke-width:1;stroke-linecap:round;stroke-linejoin:round;stroke-miterlimit:10;stroke-dasharray:none;stroke-opacity:1"
             d="M 0,0 -4.812,-31.216" /></g><g
           transform="translate(42.9046,126.2656)"
           id="g146"><path
             id="path148"
             style="fill:none;stroke:#000000;stroke-width:1;stroke-linecap:round;stroke-linejoin:round;stroke-miterlimit:10;stroke-dasharray:none;stroke-opacity:1"
             d="M 0,0 -4.812,-31.216" /></g><g
           transform="translate(40.6272,126.6201)"
           id="g150"><path
             id="path152"
             style="fill:none;stroke:#000000;stroke-width:1;stroke-linecap:round;stroke-linejoin:round;stroke-miterlimit:10;stroke-dasharray:none;stroke-opacity:1"
             d="M 0,0 -4.812,-31.216" /></g><g
           transform="translate(38.3499,126.9756)"
           id="g154"><path
             id="path156"
             style="fill:none;stroke:#000000;stroke-width:1;stroke-linecap:round;stroke-linejoin:round;stroke-miterlimit:10;stroke-dasharray:none;stroke-opacity:1"
             d="M 0,0 -4.812,-31.216" /></g><g
           transform="translate(36.0715,127.3301)"
           id="g158"><path
             id="path160"
             style="fill:none;stroke:#000000;stroke-width:1;stroke-linecap:round;stroke-linejoin:round;stroke-miterlimit:10;stroke-dasharray:none;stroke-opacity:1"
             d="M 0,0 -4.812,-31.216" /></g><g
           transform="translate(33.7942,127.6855)"
           id="g162"><path
             id="path164"
             style="fill:none;stroke:#000000;stroke-width:1;stroke-linecap:round;stroke-linejoin:round;stroke-miterlimit:10;stroke-dasharray:none;stroke-opacity:1"
             d="M 0,0 -4.812,-31.216" /></g><g
           transform="translate(31.5169,128.04)"
           id="g166"><path
             id="path168"
             style="fill:none;stroke:#000000;stroke-width:1;stroke-linecap:round;stroke-linejoin:round;stroke-miterlimit:10;stroke-dasharray:none;stroke-opacity:1"
             d="M 0,0 -4.812,-31.216" /></g></g></g><g
       id="g170"><g
         clip-path="url(#clipPath176)"
         id="g172"><g
           transform="translate(31.2649,126.4521)"
           id="g178"><path
             id="path180"
             style="fill:none;stroke:#000000;stroke-width:1;stroke-linecap:round;stroke-linejoin:round;stroke-miterlimit:10;stroke-dasharray:none;stroke-opacity:1"
             d="m 0,0 c 0,0 -2.543,-25.464 -0.897,-26.756 1.644,-1.293 38.425,-6.933 39.835,-5.64 1.411,1.292 8.814,24.912 8.814,24.912 z" /></g><g
           transform="translate(318.5266,120.1211)"
           id="g182"><path
             id="path184"
             style="fill:#ffffff;fill-opacity:1;fill-rule:nonzero;stroke:none"
             d="m 0,0 c 0,0 6.517,-24.747 8.51,-25.383 1.993,-0.637 38.426,6.932 39.296,8.636 0.869,1.704 -0.449,26.422 -0.449,26.422 z" /></g></g></g><g
       id="g186"><g
         clip-path="url(#clipPath192)"
         id="g188"><g
           transform="translate(365.6282,131.4277)"
           id="g194"><path
             id="path196"
             style="fill:none;stroke:#000000;stroke-width:1;stroke-linecap:round;stroke-linejoin:round;stroke-miterlimit:10;stroke-dasharray:none;stroke-opacity:1"
             d="M 0,0 6.4,-30.93" /></g><g
           transform="translate(363.3704,130.9639)"
           id="g198"><path
             id="path200"
             style="fill:none;stroke:#000000;stroke-width:1;stroke-linecap:round;stroke-linejoin:round;stroke-miterlimit:10;stroke-dasharray:none;stroke-opacity:1"
             d="M 0,0 6.4,-30.929" /></g><g
           transform="translate(361.1116,130.501)"
           id="g202"><path
             id="path204"
             style="fill:none;stroke:#000000;stroke-width:1;stroke-linecap:round;stroke-linejoin:round;stroke-miterlimit:10;stroke-dasharray:none;stroke-opacity:1"
             d="M 0,0 6.401,-30.93" /></g><g
           transform="translate(358.8538,130.0371)"
           id="g206"><path
             id="path208"
             style="fill:none;stroke:#000000;stroke-width:1;stroke-linecap:round;stroke-linejoin:round;stroke-miterlimit:10;stroke-dasharray:none;stroke-opacity:1"
             d="M 0,0 6.4,-30.929" /></g><g
           transform="translate(356.5959,129.5742)"
           id="g210"><path
             id="path212"
             style="fill:none;stroke:#000000;stroke-width:1;stroke-linecap:round;stroke-linejoin:round;stroke-miterlimit:10;stroke-dasharray:none;stroke-opacity:1"
             d="M 0,0 6.4,-30.93" /></g><g
           transform="translate(354.3372,129.1104)"
           id="g214"><path
             id="path216"
             style="fill:none;stroke:#000000;stroke-width:1;stroke-linecap:round;stroke-linejoin:round;stroke-miterlimit:10;stroke-dasharray:none;stroke-opacity:1"
             d="M 0,0 6.401,-30.929" /></g><g
           transform="translate(352.0793,128.6475)"
           id="g218"><path
             id="path220"
             style="fill:none;stroke:#000000;stroke-width:1;stroke-linecap:round;stroke-linejoin:round;stroke-miterlimit:10;stroke-dasharray:none;stroke-opacity:1"
             d="M 0,0 6.4,-30.93" /></g><g
           transform="translate(349.8215,128.1836)"
           id="g222"><path
             id="path224"
             style="fill:none;stroke:#000000;stroke-width:1;stroke-linecap:round;stroke-linejoin:round;stroke-miterlimit:10;stroke-dasharray:none;stroke-opacity:1"
             d="M 0,0 6.4,-30.929" /></g><g
           transform="translate(347.5627,127.7207)"
           id="g226"><path
             id="path228"
             style="fill:none;stroke:#000000;stroke-width:1;stroke-linecap:round;stroke-linejoin:round;stroke-miterlimit:10;stroke-dasharray:none;stroke-opacity:1"
             d="M 0,0 6.401,-30.93" /></g><g
           transform="translate(345.3049,127.2568)"
           id="g230"><path
             id="path232"
             style="fill:none;stroke:#000000;stroke-width:1;stroke-linecap:round;stroke-linejoin:round;stroke-miterlimit:10;stroke-dasharray:none;stroke-opacity:1"
             d="M 0,0 6.401,-30.929" /></g><g
           transform="translate(343.0471,126.7939)"
           id="g234"><path
             id="path236"
             style="fill:none;stroke:#000000;stroke-width:1;stroke-linecap:round;stroke-linejoin:round;stroke-miterlimit:10;stroke-dasharray:none;stroke-opacity:1"
             d="M 0,0 6.4,-30.93" /></g><g
           transform="translate(340.7883,126.3301)"
           id="g238"><path
             id="path240"
             style="fill:none;stroke:#000000;stroke-width:1;stroke-linecap:round;stroke-linejoin:round;stroke-miterlimit:10;stroke-dasharray:none;stroke-opacity:1"
             d="M 0,0 6.401,-30.929" /></g><g
           transform="translate(338.5305,125.8672)"
           id="g242"><path
             id="path244"
             style="fill:none;stroke:#000000;stroke-width:1;stroke-linecap:round;stroke-linejoin:round;stroke-miterlimit:10;stroke-dasharray:none;stroke-opacity:1"
             d="M 0,0 6.401,-30.929" /></g><g
           transform="translate(336.2727,125.4033)"
           id="g246"><path
             id="path248"
             style="fill:none;stroke:#000000;stroke-width:1;stroke-linecap:round;stroke-linejoin:round;stroke-miterlimit:10;stroke-dasharray:none;stroke-opacity:1"
             d="M 0,0 6.4,-30.929" /></g><g
           transform="translate(334.0149,124.9404)"
           id="g250"><path
             id="path252"
             style="fill:none;stroke:#000000;stroke-width:1;stroke-linecap:round;stroke-linejoin:round;stroke-miterlimit:10;stroke-dasharray:none;stroke-opacity:1"
             d="M 0,0 6.4,-30.929" /></g><g
           transform="translate(331.7561,124.4775)"
           id="g254"><path
             id="path256"
             style="fill:none;stroke:#000000;stroke-width:1;stroke-linecap:round;stroke-linejoin:round;stroke-miterlimit:10;stroke-dasharray:none;stroke-opacity:1"
             d="M 0,0 6.401,-30.93" /></g><g
           transform="translate(329.4983,124.0137)"
           id="g258"><path
             id="path260"
             style="fill:none;stroke:#000000;stroke-width:1;stroke-linecap:round;stroke-linejoin:round;stroke-miterlimit:10;stroke-dasharray:none;stroke-opacity:1"
             d="M 0,0 6.4,-30.929" /></g><g
           transform="translate(327.2405,123.5508)"
           id="g262"><path
             id="path264"
             style="fill:none;stroke:#000000;stroke-width:1;stroke-linecap:round;stroke-linejoin:round;stroke-miterlimit:10;stroke-dasharray:none;stroke-opacity:1"
             d="M 0,0 6.4,-30.93" /></g><g
           transform="translate(324.9817,123.0869)"
           id="g266"><path
             id="path268"
             style="fill:none;stroke:#000000;stroke-width:1;stroke-linecap:round;stroke-linejoin:round;stroke-miterlimit:10;stroke-dasharray:none;stroke-opacity:1"
             d="M 0,0 6.401,-30.929" /></g><g
           transform="translate(322.7239,122.624)"
           id="g270"><path
             id="path272"
             style="fill:none;stroke:#000000;stroke-width:1;stroke-linecap:round;stroke-linejoin:round;stroke-miterlimit:10;stroke-dasharray:none;stroke-opacity:1"
             d="M 0,0 6.4,-30.93" /></g><g
           transform="translate(320.4661,122.1602)"
           id="g274"><path
             id="path276"
             style="fill:none;stroke:#000000;stroke-width:1;stroke-linecap:round;stroke-linejoin:round;stroke-miterlimit:10;stroke-dasharray:none;stroke-opacity:1"
             d="M 0,0 6.4,-30.929" /></g><g
           transform="translate(318.2073,121.6973)"
           id="g278"><path
             id="path280"
             style="fill:none;stroke:#000000;stroke-width:1;stroke-linecap:round;stroke-linejoin:round;stroke-miterlimit:10;stroke-dasharray:none;stroke-opacity:1"
             d="M 0,0 6.401,-30.93" /></g></g></g><g
       id="g282"><g
         clip-path="url(#clipPath288)"
         id="g284"><g
           transform="translate(318.5266,120.1211)"
           id="g290"><path
             id="path292"
             style="fill:none;stroke:#000000;stroke-width:1;stroke-linecap:round;stroke-linejoin:round;stroke-miterlimit:10;stroke-dasharray:none;stroke-opacity:1"
             d="m 0,0 c 0,0 6.517,-24.747 8.51,-25.383 1.993,-0.637 38.426,6.932 39.296,8.636 0.869,1.704 -0.449,26.422 -0.449,26.422 z" /></g><g
           transform="translate(157.5686,426.0093)"
           id="g294"><path
             id="path296"
             style="fill:none;stroke:#000000;stroke-width:1;stroke-linecap:round;stroke-linejoin:round;stroke-miterlimit:10;stroke-dasharray:none;stroke-opacity:1"
             d="M 0,0 C 0,0 0.046,-37.139 40.596,-37.139 83.221,-37.139 80.371,0 80.371,0" /></g><g
           transform="translate(30.5491,128.5254)"
           id="g298"><path
             id="path300"
             style="fill:none;stroke:#000000;stroke-width:0.5;stroke-linecap:round;stroke-linejoin:round;stroke-miterlimit:10;stroke-dasharray:1.291, 1.291;stroke-dashoffset:0;stroke-opacity:1"
             d="M 0,0 49.549,-7.896" /></g><g
           transform="translate(317.678,122.0332)"
           id="g302"><path
             id="path304"
             style="fill:none;stroke:#000000;stroke-width:0.5;stroke-linecap:round;stroke-linejoin:round;stroke-miterlimit:10;stroke-dasharray:1.291, 1.291;stroke-dashoffset:0;stroke-opacity:1"
             d="M 0,0 48.098,9.357" /></g><g
           transform="translate(91.052,76.1992)"
           id="g306"><path
             id="path308"
             style="fill:#ffffff;fill-opacity:1;fill-rule:nonzero;stroke:#000000;stroke-width:1;stroke-linecap:round;stroke-linejoin:round;stroke-miterlimit:10;stroke-dasharray:none;stroke-opacity:1"
             d="M 0,0 C 0,0 137.331,-11.082 214.398,-3.022" /></g><g
           transform="translate(91.052,77.876)"
           id="g310"><path
             id="path312"
             style="fill:none;stroke:#000000;stroke-width:0.5;stroke-linecap:round;stroke-linejoin:round;stroke-miterlimit:10;stroke-dasharray:1.291, 1.291;stroke-dashoffset:0;stroke-opacity:1"
             d="M 0,0 C 0,0 137.331,-11.082 214.398,-3.022" /></g><g
           transform="translate(109.7747,363.3145)"
           id="g314"><path
             id="path316"
             style="fill:#c0c0c0;fill-opacity:1;fill-rule:nonzero;stroke:none"
             d="m 0,0 c -0.935,-2.565 -1.931,-5.073 -2.896,-7.587 -0.955,-2.518 -1.916,-5.024 -2.81,-7.557 -0.925,-2.521 -1.783,-5.064 -2.653,-7.613 -0.86,-2.552 -1.693,-5.118 -2.612,-7.69 0.188,2.726 0.649,5.418 1.264,8.072 0.604,2.659 1.403,5.27 2.312,7.84 0.942,2.558 1.992,5.079 3.222,7.512 C -2.953,-4.587 -1.592,-2.22 0,0" /></g><g
           transform="translate(286.0198,362.9341)"
           id="g318"><path
             id="path320"
             style="fill:#c0c0c0;fill-opacity:1;fill-rule:nonzero;stroke:none"
             d="m 0,0 c 2.144,-2.321 4.003,-4.9 5.637,-7.614 1.643,-2.71 3.026,-5.578 4.204,-8.525 1.146,-2.959 2.086,-6 2.728,-9.105 0.653,-3.1 1.045,-6.255 1.054,-9.414 -0.751,3.067 -1.519,6.089 -2.412,9.069 -0.903,2.975 -1.893,5.915 -3.041,8.794 -1.117,2.891 -2.395,5.718 -3.759,8.512 C 3.037,-5.492 1.541,-2.756 0,0" /></g><g
           transform="translate(117.9758,136.6309)"
           id="g322"><path
             id="path324"
             style="fill:#c0c0c0;fill-opacity:1;fill-rule:nonzero;stroke:none"
             d="m 0,0 c -0.795,-4.293 -2.062,-8.503 -3.659,-12.583 -1.588,-4.086 -3.548,-8.028 -5.775,-11.81 -2.254,-3.765 -4.78,-7.371 -7.61,-10.719 -2.818,-3.355 -5.911,-6.479 -9.304,-9.229 2.872,3.287 5.629,6.627 8.205,10.097 2.565,3.475 4.978,7.055 7.166,10.767 2.218,3.698 4.207,7.528 6.035,11.442 C -3.126,-8.113 -1.511,-4.094 0,0" /></g><g
           transform="translate(251.343,121.1777)"
           id="g326"><path
             id="path328"
             style="fill:#c0c0c0;fill-opacity:1;fill-rule:nonzero;stroke:none"
             d="m 0,0 c 2.392,-5.293 5.92,-9.89 9.88,-14.013 2.002,-2.049 4.085,-4.021 6.259,-5.9 2.162,-1.891 4.369,-3.748 6.63,-5.518 2.242,-1.794 4.546,-3.501 6.924,-5.092 2.363,-1.617 4.833,-3.059 7.382,-4.341 5.102,-2.529 10.647,-4.295 16.458,-4.51 -2.891,-0.268 -5.828,-0.01 -8.702,0.534 -2.87,0.585 -5.672,1.519 -8.352,2.707 -5.386,2.36 -10.246,5.708 -14.826,9.296 -4.529,3.65 -8.925,7.487 -12.8,11.879 C 4.983,-10.596 1.737,-5.548 0,0" /></g><g
           transform="translate(273.6731,174.2578)"
           id="g330"><path
             id="path332"
             style="fill:#c0c0c0;fill-opacity:1;fill-rule:nonzero;stroke:none"
             d="m 0,0 c -0.675,-13.799 1.833,-27.557 7.211,-40.116 5.346,-12.574 13.538,-23.905 23.962,-32.972 -5.652,3.979 -10.719,8.842 -15.006,14.323 -4.312,5.468 -7.857,11.538 -10.606,17.945 -2.719,6.419 -4.646,13.18 -5.607,20.076 C -1.034,-13.855 -1.038,-6.833 0,0" /></g></g></g><g
       id="g370"><g
         clip-path="url(#clipPath376)"
         id="g372"></g></g><g
       id="g466"><g
         clip-path="url(#clipPath472)"
         id="g468"></g></g><g
       id="g482"><g
         clip-path="url(#clipPath488)"
         id="g484"></g></g><g
       id="g578"><g
         clip-path="url(#clipPath584)"
         id="g580"></g></g></g></svg>