<?xml version="1.0" standalone="no"?>
<!DOCTYPE svg PUBLIC "-//W3C//DTD SVG 20010904//EN"
 "http://www.w3.org/TR/2001/REC-SVG-20010904/DTD/svg10.dtd">
<svg version="1.0" xmlns="http://www.w3.org/2000/svg"
 width="452.000000pt" height="541.000000pt" viewBox="0 0 452.000000 541.000000"
 preserveAspectRatio="xMidYMid meet">

<g transform="translate(0.000000,541.000000) scale(0.100000,-0.100000)"
fill="#000000" stroke="none">
<path d="M1560 4971 c-36 -16 -200 -89 -366 -162 l-301 -134 -154 -180 c-85 -99 -258 -301 -384 -450 -126 -148 -257 -304 -292 -344 -35 -41 -62 -78 -61 -82 2 -4 164 -172 362 -373 l358 -366 60 51 c32 29 60 50 61 48 2 -2 -2 -256 -9 -564 -7 -308 -17 -821 -23 -1140 -6 -319 -14 -644 -17 -722 l-6 -143 1421 0 1421 0 0 58 c0 31 -5 163 -10 292 -6 129 -21 510 -35 845 -13 336 -32 791 -41 1013 -9 221 -14 405 -12 408 3 3 43 -22 89 -55 46 -34 89 -61 94 -61 6 0 73 66 149 148 76 81 228 240 338 354 l199 207 -70 79 c-38 44 -173 199 -298 344 -528 613 -584 676 -600 681 -10 3 -169 66 -352 141 l-335 136 -55 -26 c-254 -121 -773 -120 -1013 2 -26 13 -49 24 -50 24 -2 0 -32 -13 -68 -29z" style="fill:#ffffff;stroke:none;" />
<path d="M1560 4971 c-36 -16 -200 -89 -366 -162 l-301 -134 -154 -180 c-85
-99 -258 -301 -384 -450 -126 -148 -257 -304 -292 -344 -35 -41 -62 -78 -61
-82 2 -4 164 -172 362 -373 l358 -366 60 51 c32 29 60 50 61 48 2 -2 -2 -256
-9 -564 -7 -308 -17 -821 -23 -1140 -6 -319 -14 -644 -17 -722 l-6 -143 1421
0 1421 0 0 58 c0 31 -5 163 -10 292 -6 129 -21 510 -35 845 -13 336 -32 791
-41 1013 -9 221 -14 405 -12 408 3 3 43 -22 89 -55 46 -34 89 -61 94 -61 6 0
73 66 149 148 76 81 228 240 338 354 l199 207 -70 79 c-38 44 -173 199 -298
344 -528 613 -584 676 -600 681 -10 3 -169 66 -352 141 l-335 136 -55 -26
c-254 -121 -773 -120 -1013 2 -26 13 -49 24 -50 24 -2 0 -32 -13 -68 -29z
m275 -65 c279 -65 678 -40 869 56 l39 20 -7 -39 c-12 -68 -17 -75 -74 -100
-100 -44 -219 -64 -422 -70 -211 -6 -352 9 -487 52 -90 28 -100 37 -109 110
l-7 45 64 -29 c35 -15 96 -36 134 -45z m-207 5 c21 -101 76 -197 161 -281 183
-180 430 -219 661 -103 141 71 258 220 294 373 8 34 17 64 19 66 9 9 77 -27
77 -42 0 -37 -55 -175 -96 -240 -81 -131 -203 -226 -361 -281 -67 -23 -95 -27
-193 -27 -84 0 -133 5 -180 18 -217 63 -383 218 -456 424 -34 97 -32 116 14
135 20 9 39 16 42 16 4 1 11 -26 18 -58z m-89 -86 c60 -202 235 -373 449 -439
151 -47 354 -31 493 40 176 89 320 268 361 447 12 53 24 68 42 50 3 -4 12 -8
19 -9 7 -1 132 -50 280 -109 l267 -108 0 -99 c0 -54 16 -489 35 -966 19 -477
50 -1270 70 -1762 19 -492 37 -926 39 -965 3 -38 8 -161 12 -272 l6 -203
-1401 0 c-1359 0 -1401 1 -1401 19 0 10 3 39 6 65 l7 46 1358 0 c748 0 1359 3
1359 8 0 4 -612 6 -1360 4 l-1360 -2 0 172 c0 95 7 468 15 828 8 360 24 1112
35 1670 10 558 22 1106 26 1216 l6 202 72 32 c39 18 162 72 273 121 111 48
215 95 230 103 32 17 28 23 62 -89z m361 -50 c47 -8 113 -17 148 -21 l62 -7 0
-83 0 -84 70 0 70 0 0 84 0 85 58 6 c154 16 223 30 385 82 14 4 10 -8 -18 -65
-69 -135 -215 -244 -370 -277 -128 -27 -232 -15 -354 41 -110 50 -222 163
-266 268 l-14 33 72 -24 c40 -13 110 -30 157 -38z m330 -100 l0 -75 -50 0 -50
0 0 75 0 75 50 0 50 0 0 -75z m1566 -379 c164 -192 350 -408 411 -479 l113
-131 -78 -80 c-42 -45 -196 -203 -342 -352 l-265 -271 -40 29 c-22 16 -46 33
-53 37 -14 8 -17 56 -57 1056 -8 209 -18 425 -21 480 -6 99 -6 100 14 80 10
-11 154 -177 318 -369z m-2931 -336 c-8 -366 -15 -729 -15 -807 l0 -142 -36
-27 -36 -28 -187 190 c-103 104 -263 266 -355 361 l-168 172 21 27 c12 15 93
111 179 213 86 101 209 246 272 320 237 281 333 392 336 389 2 -2 -3 -303 -11
-668z m-119 -1038 l-21 -24 -154 159 c-85 87 -244 249 -353 360 l-199 203 17
26 17 26 358 -364 357 -363 -22 -23z m3610 723 c15 -23 15 -26 -5 -50 -33 -43
-632 -665 -639 -665 -4 0 -20 11 -36 23 l-29 24 284 289 c157 159 309 315 338
347 30 31 58 57 62 57 5 0 16 -11 25 -25z"/>
<path d="M1645 4560 c3 -5 8 -10 11 -10 2 0 4 5 4 10 0 6 -5 10 -11 10 -5 0
-7 -4 -4 -10z"/>
<path d="M1685 4520 c3 -5 8 -10 11 -10 2 0 4 5 4 10 0 6 -5 10 -11 10 -5 0
-7 -4 -4 -10z"/>
<path d="M2610 4469 c0 -5 5 -7 10 -4 6 3 10 8 10 11 0 2 -4 4 -10 4 -5 0 -10
-5 -10 -11z"/>
<path d="M1855 4400 c3 -5 8 -10 11 -10 2 0 4 5 4 10 0 6 -5 10 -11 10 -5 0
-7 -4 -4 -10z"/>
<path d="M2058 4333 c7 -3 16 -2 19 1 4 3 -2 6 -13 5 -11 0 -14 -3 -6 -6z"/>
<path d="M2218 4323 c7 -3 16 -2 19 1 4 3 -2 6 -13 5 -11 0 -14 -3 -6 -6z"/>
<path d="M858 623 c7 -3 16 -2 19 1 4 3 -2 6 -13 5 -11 0 -14 -3 -6 -6z"/>
<path d="M1018 623 c7 -3 16 -2 19 1 4 3 -2 6 -13 5 -11 0 -14 -3 -6 -6z"/>
<path d="M1288 623 c7 -3 16 -2 19 1 4 3 -2 6 -13 5 -11 0 -14 -3 -6 -6z"/>
<path d="M1448 623 c7 -3 16 -2 19 1 4 3 -2 6 -13 5 -11 0 -14 -3 -6 -6z"/>
<path d="M1718 623 c7 -3 16 -2 19 1 4 3 -2 6 -13 5 -11 0 -14 -3 -6 -6z"/>
<path d="M1878 623 c7 -3 16 -2 19 1 4 3 -2 6 -13 5 -11 0 -14 -3 -6 -6z"/>
<path d="M1988 623 c7 -3 16 -2 19 1 4 3 -2 6 -13 5 -11 0 -14 -3 -6 -6z"/>
<path d="M2148 623 c7 -3 16 -2 19 1 4 3 -2 6 -13 5 -11 0 -14 -3 -6 -6z"/>
<path d="M2418 623 c7 -3 16 -2 19 1 4 3 -2 6 -13 5 -11 0 -14 -3 -6 -6z"/>
<path d="M2578 623 c7 -3 16 -2 19 1 4 3 -2 6 -13 5 -11 0 -14 -3 -6 -6z"/>
<path d="M2848 623 c7 -3 16 -2 19 1 4 3 -2 6 -13 5 -11 0 -14 -3 -6 -6z"/>
<path d="M3008 623 c7 -3 16 -2 19 1 4 3 -2 6 -13 5 -11 0 -14 -3 -6 -6z"/>
<path d="M3278 623 c7 -3 16 -2 19 1 4 3 -2 6 -13 5 -11 0 -14 -3 -6 -6z"/>
<path d="M3438 623 c7 -3 16 -2 19 1 4 3 -2 6 -13 5 -11 0 -14 -3 -6 -6z"/>
<path d="M1908 4743 c7 -3 16 -2 19 1 4 3 -2 6 -13 5 -11 0 -14 -3 -6 -6z"/>
<path d="M2388 4733 c7 -3 16 -2 19 1 4 3 -2 6 -13 5 -11 0 -14 -3 -6 -6z"/>
<path d="M2068 4723 c7 -3 16 -2 19 1 4 3 -2 6 -13 5 -11 0 -14 -3 -6 -6z"/>
<path d="M260 3520 c0 -5 5 -10 11 -10 5 0 7 5 4 10 -3 6 -8 10 -11 10 -2 0
-4 -4 -4 -10z"/>
<path d="M300 3480 c0 -5 5 -10 11 -10 5 0 7 5 4 10 -3 6 -8 10 -11 10 -2 0
-4 -4 -4 -10z"/>
<path d="M340 3440 c0 -5 5 -10 11 -10 5 0 7 5 4 10 -3 6 -8 10 -11 10 -2 0
-4 -4 -4 -10z"/>
<path d="M380 3400 c0 -5 5 -10 11 -10 5 0 7 5 4 10 -3 6 -8 10 -11 10 -2 0
-4 -4 -4 -10z"/>
<path d="M415 3360 c3 -5 8 -10 11 -10 2 0 4 5 4 10 0 6 -5 10 -11 10 -5 0 -7
-4 -4 -10z"/>
<path d="M455 3320 c3 -5 8 -10 11 -10 2 0 4 5 4 10 0 6 -5 10 -11 10 -5 0 -7
-4 -4 -10z"/>
<path d="M495 3280 c3 -5 8 -10 11 -10 2 0 4 5 4 10 0 6 -5 10 -11 10 -5 0 -7
-4 -4 -10z"/>
</g>
</svg>
