<?xml version="1.0" standalone="no"?>
<!DOCTYPE svg PUBLIC "-//W3C//DTD SVG 20010904//EN"
 "http://www.w3.org/TR/2001/REC-SVG-20010904/DTD/svg10.dtd">
<svg version="1.0" xmlns="http://www.w3.org/2000/svg"
 width="469.000000pt" height="515.000000pt" viewBox="0 0 469.000000 515.000000"
 preserveAspectRatio="xMidYMid meet">

<g transform="translate(0.000000,515.000000) scale(0.100000,-0.100000)"
fill="#000000" stroke="none">
<path d="M1620 4904 c-91 -41 -254 -114 -363 -162 l-198 -87 -196 -230 c-109 -126 -247 -288 -308 -360 -61 -71 -149 -175 -195 -230 -46 -55 -108 -127 -137 -161 l-52 -61 246 -254 c136 -140 300 -308 364 -373 l117 -119 51 48 c28 26 54 45 58 42 5 -6 -26 -1719 -43 -2339 l-6 -228 1421 0 c1347 0 1421 1 1421 18 0 18 -35 890 -45 1112 -3 69 -15 355 -26 635 -11 281 -23 590 -27 687 l-7 177 25 -16 c14 -9 34 -23 45 -32 11 -9 41 -31 67 -49 l46 -32 159 167 c87 92 240 252 340 357 178 185 181 190 165 211 -9 11 -127 148 -262 304 -135 156 -338 392 -452 524 l-206 240 -352 143 c-349 142 -353 143 -383 128 -240 -124 -784 -132 -1035 -14 -35 16 -65 30 -66 29 0 0 -75 -34 -166 -75z" style="fill:#ffffff;stroke:none;" />
<path d="M1620 4904 c-91 -41 -254 -114 -363 -162 l-198 -87 -196 -230 c-109
-126 -247 -288 -308 -360 -61 -71 -149 -175 -195 -230 -46 -55 -108 -127 -137
-161 l-52 -61 246 -254 c136 -140 300 -308 364 -373 l117 -119 51 48 c28 26
54 45 58 42 5 -6 -26 -1719 -43 -2339 l-6 -228 1421 0 c1347 0 1421 1 1421 18
0 18 -35 890 -45 1112 -3 69 -15 355 -26 635 -11 281 -23 590 -27 687 l-7 177
25 -16 c14 -9 34 -23 45 -32 11 -9 41 -31 67 -49 l46 -32 159 167 c87 92 240
252 340 357 178 185 181 190 165 211 -9 11 -127 148 -262 304 -135 156 -338
392 -452 524 l-206 240 -352 143 c-349 142 -353 143 -383 128 -240 -124 -784
-132 -1035 -14 -35 16 -65 30 -66 29 0 0 -75 -34 -166 -75z m218 32 c116 -58
283 -87 507 -87 230 0 418 32 536 92 36 18 36 18 102 -9 37 -15 67 -30 67 -34
0 -13 -157 -71 -265 -98 -169 -43 -281 -54 -494 -47 -131 4 -214 12 -283 26
-109 24 -259 71 -314 99 l-37 19 64 31 c35 17 65 31 67 31 1 1 24 -10 50 -23z
m-148 -71 c194 -98 550 -153 830 -126 189 18 384 67 502 127 50 25 98 27 98 3
0 -6 4 -8 9 -5 5 3 114 -36 243 -88 l233 -94 7 -74 c4 -40 28 -620 53 -1288
26 -668 51 -1314 55 -1435 5 -121 14 -337 20 -480 6 -143 15 -359 20 -480 5
-121 12 -286 15 -368 l6 -147 -1400 0 -1401 0 0 65 0 65 1364 0 c751 0 1367 3
1369 8 3 4 -610 6 -1363 4 l-1367 -2 4 177 c2 98 15 734 29 1413 37 1849 52
2491 56 2495 4 4 559 253 566 254 1 1 25 -10 52 -24z m2107 -397 c163 -189
615 -715 657 -765 l28 -34 -213 -217 c-117 -119 -272 -277 -344 -350 l-130
-133 -53 37 -52 37 0 61 c0 34 -11 329 -25 656 -39 928 -39 908 -22 888 8 -10
77 -91 154 -180z m-2757 -223 c-5 -204 -11 -552 -15 -775 -3 -223 -8 -423 -11
-445 -4 -32 -12 -44 -37 -59 l-32 -18 -114 119 c-62 65 -221 226 -352 358
l-239 241 27 34 c33 40 362 429 606 717 95 111 173 201 174 200 1 -2 -2 -169
-7 -372z m3406 -735 c-567 -596 -570 -599 -585 -590 -63 37 -83 10 289 390
l343 351 23 -28 22 -28 -92 -95z m-3955 -119 c140 -142 299 -304 353 -359 l99
-101 -22 -19 -23 -18 -223 226 c-266 268 -469 479 -473 492 -4 10 16 38 28 38
4 0 121 -116 261 -259z"/>
<path d="M1828 4753 c7 -3 16 -2 19 1 4 3 -2 6 -13 5 -11 0 -14 -3 -6 -6z"/>
<path d="M2088 4703 c7 -3 16 -2 19 1 4 3 -2 6 -13 5 -11 0 -14 -3 -6 -6z"/>
<path d="M1138 603 c7 -3 16 -2 19 1 4 3 -2 6 -13 5 -11 0 -14 -3 -6 -6z"/>
<path d="M1298 603 c7 -3 16 -2 19 1 4 3 -2 6 -13 5 -11 0 -14 -3 -6 -6z"/>
<path d="M1408 603 c7 -3 16 -2 19 1 4 3 -2 6 -13 5 -11 0 -14 -3 -6 -6z"/>
<path d="M1568 603 c7 -3 16 -2 19 1 4 3 -2 6 -13 5 -11 0 -14 -3 -6 -6z"/>
<path d="M1838 603 c7 -3 16 -2 19 1 4 3 -2 6 -13 5 -11 0 -14 -3 -6 -6z"/>
<path d="M1998 603 c7 -3 16 -2 19 1 4 3 -2 6 -13 5 -11 0 -14 -3 -6 -6z"/>
<path d="M2268 603 c7 -3 16 -2 19 1 4 3 -2 6 -13 5 -11 0 -14 -3 -6 -6z"/>
<path d="M2428 603 c7 -3 16 -2 19 1 4 3 -2 6 -13 5 -11 0 -14 -3 -6 -6z"/>
<path d="M2698 603 c7 -3 16 -2 19 1 4 3 -2 6 -13 5 -11 0 -14 -3 -6 -6z"/>
<path d="M2858 603 c7 -3 16 -2 19 1 4 3 -2 6 -13 5 -11 0 -14 -3 -6 -6z"/>
<path d="M3128 603 c7 -3 16 -2 19 1 4 3 -2 6 -13 5 -11 0 -14 -3 -6 -6z"/>
<path d="M3288 603 c7 -3 16 -2 19 1 4 3 -2 6 -13 5 -11 0 -14 -3 -6 -6z"/>
<path d="M3398 603 c7 -3 16 -2 19 1 4 3 -2 6 -13 5 -11 0 -14 -3 -6 -6z"/>
<path d="M3558 603 c7 -3 16 -2 19 1 4 3 -2 6 -13 5 -11 0 -14 -3 -6 -6z"/>
<path d="M4355 3590 c-3 -5 -1 -10 4 -10 6 0 11 5 11 10 0 6 -2 10 -4 10 -3 0
-8 -4 -11 -10z"/>
<path d="M4240 3469 c0 -5 5 -7 10 -4 6 3 10 8 10 11 0 2 -4 4 -10 4 -5 0 -10
-5 -10 -11z"/>
<path d="M4130 3359 c0 -5 5 -7 10 -4 6 3 10 8 10 11 0 2 -4 4 -10 4 -5 0 -10
-5 -10 -11z"/>
<path d="M4090 3319 c0 -5 5 -7 10 -4 6 3 10 8 10 11 0 2 -4 4 -10 4 -5 0 -10
-5 -10 -11z"/>
<path d="M3980 3209 c0 -5 5 -7 10 -4 6 3 10 8 10 11 0 2 -4 4 -10 4 -5 0 -10
-5 -10 -11z"/>
<path d="M820 3120 c0 -5 5 -10 11 -10 5 0 7 5 4 10 -3 6 -8 10 -11 10 -2 0
-4 -4 -4 -10z"/>
<path d="M860 3080 c0 -5 5 -10 11 -10 5 0 7 5 4 10 -3 6 -8 10 -11 10 -2 0
-4 -4 -4 -10z"/>
<path d="M900 3040 c0 -5 5 -10 11 -10 5 0 7 5 4 10 -3 6 -8 10 -11 10 -2 0
-4 -4 -4 -10z"/>
<path d="M935 3000 c3 -5 8 -10 11 -10 2 0 4 5 4 10 0 6 -5 10 -11 10 -5 0 -7
-4 -4 -10z"/>
</g>
</svg>
